<svg width="400" height="493" viewBox="0 0 400 493" fill="none" xmlns="http://www.w3.org/2000/svg">
<path d="M214.965 243.539C223.281 253.935 232.516 265.345 238.995 273.323C246.199 251.662 236.577 221.395 225.844 198.767C223.281 212.837 219.703 227.729 214.965 243.539Z" fill="#981E96"/>
<path d="M164.294 163.375C153.608 173.625 144.035 192.772 151.239 222.701C157.718 222.169 166.905 221.444 175.221 220.67C170.483 199.396 166.905 180.394 164.294 163.375Z" fill="#006F6C"/>
<path opacity="0.2" d="M187.308 269.987C127.547 40.5175 176.719 21.0324 195.286 13.1997C213.852 42.4999 262.976 118.7 203.167 279.125L187.308 269.987Z" fill="url(#paint0_linear_2927_1950)"/>
<path opacity="0.1" d="M204.907 256.787C145.147 27.3661 194.27 7.83271 212.885 0C231.451 29.3002 280.575 105.5 220.766 265.925L204.907 256.787Z" fill="url(#paint1_linear_2927_1950)"/>
<path opacity="0.15" d="M203.166 279.125C262.977 118.7 213.852 42.4999 195.285 13.1997V274.58L203.166 279.125Z" fill="url(#paint2_linear_2927_1950)"/>
<path opacity="0.1" d="M213.079 93.9924C213.079 107.966 204.859 114.541 194.706 108.691C184.552 102.841 176.333 86.7399 176.333 72.7667C176.333 58.7935 184.552 52.2179 194.706 58.0683C204.859 63.9186 213.079 80.0192 213.079 93.9924Z" fill="white"/>
<path opacity="0.1" d="M209.452 331.053C205.246 324.188 203.215 315.485 201.426 307.846C199.347 299.046 197.606 291.552 193.255 289.666C188.275 287.49 186.051 293.002 182.908 300.641C181.071 305.138 178.895 310.456 175.704 315.34C172.271 311.713 168.645 308.716 164.825 306.54C148.821 297.305 135.477 305.283 132.334 324.333C130.158 322.689 127.982 321.19 125.758 319.885C100.084 305.09 79.2939 321.867 79.2939 357.453C79.2939 392.99 100.084 433.797 125.71 448.592C150.61 462.952 170.966 447.528 172.126 414.119C176.816 422.822 183.053 430.122 189.967 434.087C191.756 435.102 193.497 435.876 195.141 436.36C205.101 458.262 219.944 477.119 236.528 486.692C266.505 504.001 290.825 484.468 290.874 443.08C290.874 401.693 266.554 354.068 236.577 336.759C226.665 331.053 217.43 329.313 209.452 331.053Z" fill="url(#paint3_linear_2927_1950)"/>
<path opacity="0.3" d="M257.754 172.755L388.638 248.326L388.686 316.548L269.358 247.649L257.802 251.421L257.754 172.755Z" fill="url(#paint4_linear_2927_1950)"/>
<path d="M350.586 260.317V241.799L400 270.326V288.844L350.586 260.317Z" fill="#981E96"/>
<path opacity="0.1" d="M291.406 208.776L320.078 225.312V231.307L291.406 214.771V208.776Z" fill="white"/>
<path opacity="0.1" d="M291.454 220.766L343.189 250.647V256.642L291.454 226.762V220.766Z" fill="white"/>
<path opacity="0.15" d="M291.454 232.758L358.419 271.437V277.433L291.454 238.753V232.758Z" fill="white"/>
<path d="M284.347 210.952C284.347 216.56 281.011 219.22 276.901 216.85C272.791 214.481 269.455 208.002 269.455 202.394C269.455 196.785 272.791 194.126 276.901 196.495C281.059 198.864 284.347 205.343 284.347 210.952Z" fill="#981E96"/>
<path opacity="0.3" d="M144.856 76.393L13.9727 0.870117L14.021 69.0921L133.349 137.943L144.904 155.059L144.856 76.393Z" fill="url(#paint5_linear_2927_1950)"/>
<path d="M0 27.4629V8.94482L49.4137 37.4714V55.9895L0 27.4629Z" fill="#006F6C"/>
<path opacity="0.15" d="M111.205 73.589L82.5332 57.0532V63.0486L111.205 79.5844V73.589Z" fill="white"/>
<path opacity="0.15" d="M111.206 85.5795L55.9414 53.6685V59.6639L111.206 91.5749V85.5795Z" fill="white"/>
<path opacity="0.15" d="M111.205 97.5703L44.2402 58.8901V64.8856L111.205 103.566V97.5703Z" fill="white"/>
<path d="M118.264 83.8875C118.264 89.4962 121.6 95.9751 125.71 98.3443C129.819 100.713 133.155 98.0542 133.155 92.4455C133.155 86.8369 129.819 80.358 125.71 77.9888C121.6 75.668 118.264 78.2789 118.264 83.8875Z" fill="#006F6C"/>
<path opacity="0.2" d="M127.451 149.209L49.2686 104.098V144.809L127.451 189.919V149.209Z" fill="url(#paint6_linear_2927_1950)"/>
<path opacity="0.15" d="M69.2852 125.42L96.071 140.892V145.775L69.2852 130.303V125.42Z" fill="white"/>
<path opacity="0.15" d="M69.2852 135.235L119.376 164.149V169.08L69.2852 140.167V135.235Z" fill="white"/>
<path d="M65.1757 126.871C65.1757 130.207 63.1933 131.802 60.7275 130.4C58.2616 128.998 56.2793 125.13 56.2793 121.745C56.2793 118.409 58.2616 116.814 60.7275 118.216C63.145 119.666 65.1757 123.534 65.1757 126.871Z" fill="#006F6C"/>
<path opacity="0.2" d="M359.627 179.959L281.445 134.848V175.559L359.627 220.718V179.959Z" fill="url(#paint7_linear_2927_1950)"/>
<path opacity="0.15" d="M301.463 156.219L328.249 171.691V176.575L301.463 161.103V156.219Z" fill="white"/>
<path opacity="0.15" d="M301.511 166.034L351.602 194.948V199.879L301.511 170.966V166.034Z" fill="white"/>
<path d="M297.353 157.67C297.353 161.006 295.37 162.601 292.904 161.199C290.438 159.797 288.456 155.929 288.456 152.545C288.456 149.209 290.438 147.613 292.904 149.015C295.37 150.466 297.353 154.334 297.353 157.67Z" fill="#981E96"/>
<defs>
<linearGradient id="paint0_linear_2927_1950" x1="264.956" y1="21.3354" x2="114.66" y2="281.727" gradientUnits="userSpaceOnUse">
<stop stop-color="white"/>
<stop offset="1" stop-color="white" stop-opacity="0"/>
</linearGradient>
<linearGradient id="paint1_linear_2927_1950" x1="282.55" y1="8.1394" x2="132.253" y2="268.53" gradientUnits="userSpaceOnUse">
<stop stop-color="white"/>
<stop offset="1" stop-color="white" stop-opacity="0"/>
</linearGradient>
<linearGradient id="paint2_linear_2927_1950" x1="236.928" y1="78.1155" x2="120.907" y2="287.464" gradientUnits="userSpaceOnUse">
<stop stop-color="white" stop-opacity="0"/>
<stop offset="1" stop-color="white"/>
</linearGradient>
<linearGradient id="paint3_linear_2927_1950" x1="226.013" y1="330.676" x2="161.097" y2="443.144" gradientUnits="userSpaceOnUse">
<stop stop-color="white"/>
<stop offset="1" stop-color="white" stop-opacity="0"/>
</linearGradient>
<linearGradient id="paint4_linear_2927_1950" x1="313.99" y1="174.964" x2="330.913" y2="312.214" gradientUnits="userSpaceOnUse">
<stop stop-color="white"/>
<stop offset="1" stop-color="white" stop-opacity="0"/>
</linearGradient>
<linearGradient id="paint5_linear_2927_1950" x1="116.313" y1="49.0754" x2="48.7286" y2="101.992" gradientUnits="userSpaceOnUse">
<stop stop-color="white"/>
<stop offset="1" stop-color="white" stop-opacity="0"/>
</linearGradient>
<linearGradient id="paint6_linear_2927_1950" x1="97.1686" y1="131.719" x2="79.5375" y2="162.265" gradientUnits="userSpaceOnUse">
<stop stop-color="white"/>
<stop offset="1" stop-color="white" stop-opacity="0"/>
</linearGradient>
<linearGradient id="paint7_linear_2927_1950" x1="329.375" y1="162.506" x2="311.744" y2="193.052" gradientUnits="userSpaceOnUse">
<stop stop-color="white"/>
<stop offset="1" stop-color="white" stop-opacity="0"/>
</linearGradient>
</defs>
</svg>
