<svg width="77" height="40" viewBox="0 0 77 40" fill="none" xmlns="http://www.w3.org/2000/svg">
<path d="M6.48 11.24C6.528 11.432 6.552 11.672 6.552 11.96C6.552 12.236 6.528 12.476 6.48 12.68C6.528 12.872 6.552 13.112 6.552 13.4C6.552 13.676 6.528 13.916 6.48 14.12H5.76C5.808 14.312 5.832 14.552 5.832 14.84C5.832 15.116 5.808 15.356 5.76 15.56H5.04C5.088 15.752 5.112 15.992 5.112 16.28C5.112 16.556 5.088 16.796 5.04 17H0.72C0.672 16.796 0.648 16.556 0.648 16.28C0.648 15.992 0.672 15.752 0.72 15.56C0.672 15.356 0.648 15.116 0.648 14.84C0.648 14.552 0.672 14.312 0.72 14.12C0.672 13.916 0.648 13.676 0.648 13.4C0.648 13.112 0.672 12.872 0.72 12.68C0.672 12.476 0.648 12.236 0.648 11.96C0.648 11.672 0.672 11.432 0.72 11.24C0.672 11.036 0.648 10.796 0.648 10.52C0.648 10.232 0.672 9.992 0.72 9.8C0.672 9.596 0.648 9.356 0.648 9.08C0.648 8.792 0.672 8.552 0.72 8.36C0.672 8.156 0.648 7.916 0.648 7.64C0.648 7.352 0.672 7.112 0.72 6.92H5.04C5.088 7.112 5.112 7.352 5.112 7.64C5.112 7.916 5.088 8.156 5.04 8.36H5.76C5.808 8.552 5.832 8.792 5.832 9.08C5.832 9.356 5.808 9.596 5.76 9.8H6.48C6.528 9.992 6.552 10.232 6.552 10.52C6.552 10.796 6.528 11.036 6.48 11.24ZM5.04 14.12C4.992 13.916 4.968 13.676 4.968 13.4C4.968 13.112 4.992 12.872 5.04 12.68C4.992 12.476 4.968 12.236 4.968 11.96C4.968 11.672 4.992 11.432 5.04 11.24C4.992 11.036 4.968 10.796 4.968 10.52C4.968 10.232 4.992 9.992 5.04 9.8H4.32C4.272 9.596 4.248 9.356 4.248 9.08C4.248 8.792 4.272 8.552 4.32 8.36H2.16C2.208 8.552 2.232 8.792 2.232 9.08C2.232 9.356 2.208 9.596 2.16 9.8C2.208 9.992 2.232 10.232 2.232 10.52C2.232 10.796 2.208 11.036 2.16 11.24C2.208 11.432 2.232 11.672 2.232 11.96C2.232 12.236 2.208 12.476 2.16 12.68C2.208 12.872 2.232 13.112 2.232 13.4C2.232 13.676 2.208 13.916 2.16 14.12C2.208 14.312 2.232 14.552 2.232 14.84C2.232 15.116 2.208 15.356 2.16 15.56H4.32C4.272 15.356 4.248 15.116 4.248 14.84C4.248 14.552 4.272 14.312 4.32 14.12H5.04ZM13.759 11.96C13.759 12.236 13.735 12.476 13.687 12.68C13.735 12.872 13.759 13.112 13.759 13.4C13.759 13.676 13.735 13.916 13.687 14.12H9.90703C9.95503 14.312 9.97903 14.552 9.97903 14.84C9.97903 15.116 9.95503 15.356 9.90703 15.56H12.967C13.015 15.752 13.039 15.992 13.039 16.28C13.039 16.556 13.015 16.796 12.967 17H9.36703C9.31903 16.796 9.29503 16.556 9.29503 16.28C9.29503 15.992 9.31903 15.752 9.36703 15.56H8.46703C8.41903 15.356 8.39503 15.116 8.39503 14.84C8.39503 14.552 8.41903 14.312 8.46703 14.12H7.92703C7.87903 13.916 7.85503 13.676 7.85503 13.4C7.85503 13.112 7.87903 12.872 7.92703 12.68H8.46703C8.41903 12.476 8.39503 12.236 8.39503 11.96C8.39503 11.672 8.41903 11.432 8.46703 11.24H9.36703C9.31903 11.036 9.29503 10.796 9.29503 10.52C9.29503 10.232 9.31903 9.992 9.36703 9.8H12.967C13.015 9.992 13.039 10.232 13.039 10.52C13.039 10.796 13.015 11.036 12.967 11.24H13.687C13.735 11.432 13.759 11.672 13.759 11.96ZM12.247 12.68C12.199 12.476 12.175 12.236 12.175 11.96C12.175 11.672 12.199 11.432 12.247 11.24H9.90703C9.95503 11.432 9.97903 11.672 9.97903 11.96C9.97903 12.236 9.95503 12.476 9.90703 12.68H12.247ZM20.9661 10.52C20.9661 10.796 20.9421 11.036 20.8941 11.24H20.3541C20.4021 11.432 20.4261 11.672 20.4261 11.96C20.4261 12.236 20.4021 12.476 20.3541 12.68H19.8141C19.8621 12.872 19.8861 13.112 19.8861 13.4C19.8861 13.676 19.8621 13.916 19.8141 14.12H19.4541C19.5021 14.312 19.5261 14.552 19.5261 14.84C19.5261 15.116 19.5021 15.356 19.4541 15.56H18.7341C18.7821 15.752 18.8061 15.992 18.8061 16.28C18.8061 16.556 18.7821 16.796 18.7341 17H17.2941C17.2461 16.796 17.2221 16.556 17.2221 16.28C17.2221 15.992 17.2461 15.752 17.2941 15.56H16.5741C16.5261 15.356 16.5021 15.116 16.5021 14.84C16.5021 14.552 16.5261 14.312 16.5741 14.12H16.2141C16.1661 13.916 16.1421 13.676 16.1421 13.4C16.1421 13.112 16.1661 12.872 16.2141 12.68H15.6741C15.6261 12.476 15.6021 12.236 15.6021 11.96C15.6021 11.672 15.6261 11.432 15.6741 11.24H15.1341C15.0861 11.036 15.0621 10.796 15.0621 10.52C15.0621 10.232 15.0861 9.992 15.1341 9.8H16.5741C16.6221 9.992 16.6461 10.232 16.6461 10.52C16.6461 10.796 16.6221 11.036 16.5741 11.24H17.1141C17.1621 11.432 17.1861 11.672 17.1861 11.96C17.1861 12.236 17.1621 12.476 17.1141 12.68H17.6541C17.7021 12.872 17.7261 13.112 17.7261 13.4C17.7261 13.676 17.7021 13.916 17.6541 14.12H18.3741C18.3261 13.916 18.3021 13.676 18.3021 13.4C18.3021 13.112 18.3261 12.872 18.3741 12.68H18.9141C18.8661 12.476 18.8421 12.236 18.8421 11.96C18.8421 11.672 18.8661 11.432 18.9141 11.24H19.4541C19.4061 11.036 19.3821 10.796 19.3821 10.52C19.3821 10.232 19.4061 9.992 19.4541 9.8H20.8941C20.9421 9.992 20.9661 10.232 20.9661 10.52ZM22.9491 5.8H25.5411V14.888H31.1571V17H22.9491V5.8ZM32.4293 8.392H34.9253V17H32.4293V8.392ZM33.6773 7.192C33.2187 7.192 32.8453 7.05867 32.5573 6.792C32.2693 6.52533 32.1253 6.19467 32.1253 5.8C32.1253 5.40533 32.2693 5.07467 32.5573 4.808C32.8453 4.54133 33.2187 4.408 33.6773 4.408C34.136 4.408 34.5093 4.536 34.7973 4.792C35.0853 5.048 35.2293 5.368 35.2293 5.752C35.2293 6.168 35.0853 6.51467 34.7973 6.792C34.5093 7.05867 34.136 7.192 33.6773 7.192ZM39.9778 8.584H42.1858V10.504H40.0418V17H37.5458V10.504H36.2178V8.584H37.5458V8.2C37.5458 7.21867 37.8338 6.44 38.4098 5.864C38.9965 5.288 39.8178 5 40.8738 5C41.2472 5 41.5992 5.04267 41.9298 5.128C42.2712 5.20267 42.5538 5.31467 42.7778 5.464L42.1218 7.272C41.8338 7.06933 41.4978 6.968 41.1138 6.968C40.3565 6.968 39.9778 7.384 39.9778 8.216V8.584ZM48.9813 16.584C48.736 16.7653 48.432 16.904 48.0693 17C47.7173 17.0853 47.344 17.128 46.9493 17.128C45.9253 17.128 45.1307 16.8667 44.5653 16.344C44.0107 15.8213 43.7333 15.0533 43.7333 14.04V10.504H42.4053V8.584H43.7333V6.488H46.2293V8.584H48.3733V10.504H46.2293V14.008C46.2293 14.3707 46.32 14.6533 46.5013 14.856C46.6933 15.048 46.96 15.144 47.3013 15.144C47.696 15.144 48.032 15.0373 48.3093 14.824L48.9813 16.584ZM50.3825 8.392H52.8785V17H50.3825V8.392ZM51.6305 7.192C51.1718 7.192 50.7985 7.05867 50.5105 6.792C50.2225 6.52533 50.0785 6.19467 50.0785 5.8C50.0785 5.40533 50.2225 5.07467 50.5105 4.808C50.7985 4.54133 51.1718 4.408 51.6305 4.408C52.0891 4.408 52.4625 4.536 52.7505 4.792C53.0385 5.048 53.1825 5.368 53.1825 5.752C53.1825 6.168 53.0385 6.51467 52.7505 6.792C52.4625 7.05867 52.0891 7.192 51.6305 7.192ZM60.427 8.264C61.4936 8.264 62.3523 8.584 63.003 9.224C63.6643 9.864 63.995 10.8133 63.995 12.072V17H61.499V12.456C61.499 11.7733 61.3496 11.2667 61.051 10.936C60.7523 10.5947 60.3203 10.424 59.755 10.424C59.1256 10.424 58.6243 10.6213 58.251 11.016C57.8776 11.4 57.691 11.976 57.691 12.744V17H55.195V8.392H57.579V9.4C57.9096 9.03733 58.3203 8.76 58.811 8.568C59.3016 8.36533 59.8403 8.264 60.427 8.264ZM75.2312 8.392V15.56C75.2312 17.1387 74.8206 18.312 73.9992 19.08C73.1779 19.848 71.9779 20.232 70.3992 20.232C69.5672 20.232 68.7779 20.1307 68.0312 19.928C67.2846 19.7253 66.6659 19.432 66.1752 19.048L67.1672 17.256C67.5299 17.5547 67.9886 17.7893 68.5432 17.96C69.0979 18.1413 69.6526 18.232 70.2072 18.232C71.0712 18.232 71.7059 18.0347 72.1112 17.64C72.5272 17.256 72.7352 16.6693 72.7352 15.88V15.512C72.0846 16.2267 71.1779 16.584 70.0152 16.584C69.2259 16.584 68.5006 16.4133 67.8392 16.072C67.1886 15.72 66.6712 15.2293 66.2872 14.6C65.9032 13.9707 65.7112 13.2453 65.7112 12.424C65.7112 11.6027 65.9032 10.8773 66.2872 10.248C66.6712 9.61867 67.1886 9.13333 67.8392 8.792C68.5006 8.44 69.2259 8.264 70.0152 8.264C71.2632 8.264 72.2126 8.67467 72.8632 9.496V8.392H75.2312ZM70.5112 14.536C71.1726 14.536 71.7112 14.344 72.1272 13.96C72.5539 13.5653 72.7672 13.0533 72.7672 12.424C72.7672 11.7947 72.5539 11.288 72.1272 10.904C71.7112 10.5093 71.1726 10.312 70.5112 10.312C69.8499 10.312 69.3059 10.5093 68.8792 10.904C68.4526 11.288 68.2392 11.7947 68.2392 12.424C68.2392 13.0533 68.4526 13.5653 68.8792 13.96C69.3059 14.344 69.8499 14.536 70.5112 14.536Z" fill="#402E32"/>
<rect x="18.05" y="30.05" width="39.9" height="0.9" fill="#D2D5D9" stroke="black" stroke-width="0.1"/>
<rect x="21.05" y="25.05" width="1.9" height="10.9" fill="#402E32" stroke="#92400E" stroke-width="0.1"/>
<rect x="50.05" y="25.05" width="1.9" height="10.9" fill="#402E32" stroke="#92400E" stroke-width="0.1"/>
<rect x="23.05" y="25.05" width="1.9" height="10.9" fill="#402E32" stroke="#92400E" stroke-width="0.1"/>
<rect x="52.05" y="25.05" width="1.9" height="10.9" fill="#402E32" stroke="#92400E" stroke-width="0.1"/>
<rect x="25.05" y="25.05" width="1.9" height="10.9" fill="#402E32" stroke="#92400E" stroke-width="0.1"/>
<rect x="54.05" y="25.05" width="1.9" height="10.9" fill="#402E32" stroke="#92400E" stroke-width="0.1"/>
<path d="M16.13 28.052C16.13 28.664 16.034 29.12 15.842 29.42C15.65 29.72 15.344 29.936 14.924 30.068C15.344 30.2 15.65 30.416 15.842 30.716C16.034 31.016 16.13 31.472 16.13 32.084V34.964C16.13 35.396 16.238 35.726 16.454 35.954C16.682 36.182 17.012 36.296 17.444 36.296H17.768V38.492H16.724C15.608 38.492 14.762 38.216 14.186 37.664C13.61 37.112 13.322 36.314 13.322 35.27V32.012C13.322 31.736 13.25 31.526 13.106 31.382C12.974 31.238 12.782 31.166 12.53 31.166H11.936V28.97H12.53C12.782 28.97 12.974 28.898 13.106 28.754C13.25 28.61 13.322 28.4 13.322 28.124V24.866C13.322 23.822 13.61 23.024 14.186 22.472C14.762 21.92 15.608 21.644 16.724 21.644H17.768V23.84H17.444C17.012 23.84 16.682 23.954 16.454 24.182C16.238 24.41 16.13 24.74 16.13 25.172V28.052ZM64.9145 28.97V31.166H64.3205C64.0685 31.166 63.8705 31.238 63.7265 31.382C63.5945 31.526 63.5285 31.736 63.5285 32.012V35.27C63.5285 36.314 63.2405 37.112 62.6645 37.664C62.0885 38.216 61.2425 38.492 60.1265 38.492H59.0825V36.296H59.4065C59.8385 36.296 60.1625 36.182 60.3785 35.954C60.6065 35.726 60.7205 35.396 60.7205 34.964V32.084C60.7205 31.472 60.8165 31.016 61.0085 30.716C61.2005 30.416 61.5065 30.2 61.9265 30.068C61.5065 29.936 61.2005 29.72 61.0085 29.42C60.8165 29.12 60.7205 28.664 60.7205 28.052V25.172C60.7205 24.74 60.6065 24.41 60.3785 24.182C60.1625 23.954 59.8385 23.84 59.4065 23.84H59.0825V21.644H60.1265C61.2425 21.644 62.0885 21.92 62.6645 22.472C63.2405 23.024 63.5285 23.822 63.5285 24.866V28.124C63.5285 28.4 63.5945 28.61 63.7265 28.754C63.8705 28.898 64.0685 28.97 64.3205 28.97H64.9145Z" fill="#402E32"/>
</svg>
