<svg width="55" height="23" viewBox="0 0 55 23" fill="none" xmlns="http://www.w3.org/2000/svg">
<path d="M5.13 11.052C5.13 11.664 5.034 12.12 4.842 12.42C4.65 12.72 4.344 12.936 3.924 13.068C4.344 13.2 4.65 13.416 4.842 13.716C5.034 14.016 5.13 14.472 5.13 15.084V17.964C5.13 18.396 5.238 18.726 5.454 18.954C5.682 19.182 6.012 19.296 6.444 19.296H6.768V21.492H5.724C4.608 21.492 3.762 21.216 3.186 20.664C2.61 20.112 2.322 19.314 2.322 18.27V15.012C2.322 14.736 2.25 14.526 2.106 14.382C1.974 14.238 1.782 14.166 1.53 14.166H0.936V11.97H1.53C1.782 11.97 1.974 11.898 2.106 11.754C2.25 11.61 2.322 11.4 2.322 11.124V7.866C2.322 6.822 2.61 6.024 3.186 5.472C3.762 4.92 4.608 4.644 5.724 4.644H6.768V6.84H6.444C6.012 6.84 5.682 6.954 5.454 7.182C5.238 7.41 5.13 7.74 5.13 8.172V11.052ZM53.9145 11.97V14.166H53.3205C53.0685 14.166 52.8705 14.238 52.7265 14.382C52.5945 14.526 52.5285 14.736 52.5285 15.012V18.27C52.5285 19.314 52.2405 20.112 51.6645 20.664C51.0885 21.216 50.2425 21.492 49.1265 21.492H48.0825V19.296H48.4065C48.8385 19.296 49.1625 19.182 49.3785 18.954C49.6065 18.726 49.7205 18.396 49.7205 17.964V15.084C49.7205 14.472 49.8165 14.016 50.0085 13.716C50.2005 13.416 50.5065 13.2 50.9265 13.068C50.5065 12.936 50.2005 12.72 50.0085 12.42C49.8165 12.12 49.7205 11.664 49.7205 11.052V8.172C49.7205 7.74 49.6065 7.41 49.3785 7.182C49.1625 6.954 48.8385 6.84 48.4065 6.84H48.0825V4.644H49.1265C50.2425 4.644 51.0885 4.92 51.6645 5.472C52.2405 6.024 52.5285 6.822 52.5285 7.866V11.124C52.5285 11.4 52.5945 11.61 52.7265 11.754C52.8705 11.898 53.0685 11.97 53.3205 11.97H53.9145Z" fill="#402E32"/>
<rect x="7.05" y="13.05" width="39.9" height="0.9" fill="#D2D5D9" stroke="black" stroke-width="0.1"/>
<rect x="10.05" y="8.05" width="1.9" height="10.9" fill="#402E32" stroke="#92400E" stroke-width="0.1"/>
<rect x="39.05" y="8.05" width="1.9" height="10.9" fill="#402E32" stroke="#92400E" stroke-width="0.1"/>
<rect x="12.05" y="8.05" width="1.9" height="10.9" fill="#402E32" stroke="#92400E" stroke-width="0.1"/>
<rect x="41.05" y="8.05" width="1.9" height="10.9" fill="#402E32" stroke="#92400E" stroke-width="0.1"/>
<rect x="14.05" y="8.05" width="1.9" height="10.9" fill="#402E32" stroke="#92400E" stroke-width="0.1"/>
<rect x="43.05" y="8.05" width="1.9" height="10.9" fill="#402E32" stroke="#92400E" stroke-width="0.1"/>
</svg>
