<svg width="75" height="36" viewBox="0 0 75 36" fill="none" xmlns="http://www.w3.org/2000/svg">
<rect x="17.05" y="26.05" width="39.9" height="0.9" fill="#D2D5D9" stroke="black" stroke-width="0.1"/>
<rect x="20.05" y="21.05" width="1.9" height="10.9" fill="#402E32" stroke="#92400E" stroke-width="0.1"/>
<rect x="49.05" y="21.05" width="1.9" height="10.9" fill="#402E32" stroke="#92400E" stroke-width="0.1"/>
<rect x="22.05" y="21.05" width="1.9" height="10.9" fill="#402E32" stroke="#92400E" stroke-width="0.1"/>
<rect x="51.05" y="21.05" width="1.9" height="10.9" fill="#402E32" stroke="#92400E" stroke-width="0.1"/>
<rect x="24.05" y="21.05" width="1.9" height="10.9" fill="#402E32" stroke="#92400E" stroke-width="0.1"/>
<rect x="53.05" y="21.05" width="1.9" height="10.9" fill="#402E32" stroke="#92400E" stroke-width="0.1"/>
<path d="M15.13 24.052C15.13 24.664 15.034 25.12 14.842 25.42C14.65 25.72 14.344 25.936 13.924 26.068C14.344 26.2 14.65 26.416 14.842 26.716C15.034 27.016 15.13 27.472 15.13 28.084V30.964C15.13 31.396 15.238 31.726 15.454 31.954C15.682 32.182 16.012 32.296 16.444 32.296H16.768V34.492H15.724C14.608 34.492 13.762 34.216 13.186 33.664C12.61 33.112 12.322 32.314 12.322 31.27V28.012C12.322 27.736 12.25 27.526 12.106 27.382C11.974 27.238 11.782 27.166 11.53 27.166H10.936V24.97H11.53C11.782 24.97 11.974 24.898 12.106 24.754C12.25 24.61 12.322 24.4 12.322 24.124V20.866C12.322 19.822 12.61 19.024 13.186 18.472C13.762 17.92 14.608 17.644 15.724 17.644H16.768V19.84H16.444C16.012 19.84 15.682 19.954 15.454 20.182C15.238 20.41 15.13 20.74 15.13 21.172V24.052ZM63.9145 24.97V27.166H63.3205C63.0685 27.166 62.8705 27.238 62.7265 27.382C62.5945 27.526 62.5285 27.736 62.5285 28.012V31.27C62.5285 32.314 62.2405 33.112 61.6645 33.664C61.0885 34.216 60.2425 34.492 59.1265 34.492H58.0825V32.296H58.4065C58.8385 32.296 59.1625 32.182 59.3785 31.954C59.6065 31.726 59.7205 31.396 59.7205 30.964V28.084C59.7205 27.472 59.8165 27.016 60.0085 26.716C60.2005 26.416 60.5065 26.2 60.9265 26.068C60.5065 25.936 60.2005 25.72 60.0085 25.42C59.8165 25.12 59.7205 24.664 59.7205 24.052V21.172C59.7205 20.74 59.6065 20.41 59.3785 20.182C59.1625 19.954 58.8385 19.84 58.4065 19.84H58.0825V17.644H59.1265C60.2425 17.644 61.0885 17.92 61.6645 18.472C62.2405 19.024 62.5285 19.822 62.5285 20.866V24.124C62.5285 24.4 62.5945 24.61 62.7265 24.754C62.8705 24.898 63.0685 24.97 63.3205 24.97H63.9145Z" fill="#402E32"/>
<path d="M1.16663 6.31592V0.0670481H5.16269C6.82548 0.0670481 7.96977 0.630251 8.59555 1.75666C9.13193 2.63275 9.40013 4.0944 9.40013 6.14159H9.789V9.27944H5.90022V8.91738H7.1205V6.14159H6.77185V4.98837C6.77185 3.70105 6.4813 2.87859 5.90022 2.521C5.56945 2.33327 5.0286 2.2394 4.27766 2.2394H3.74128V6.07455H4.10334V9.27944H1.48847V6.31592H1.16663ZM0 9.68173V9.27944H1.18004V9.68173H4.10334V10.5534H5.90022V9.68173H9.789V10.5534H7.1205V12.8866H4.10334V13.1682H1.20686C1.18004 13.1682 1.16663 13.1548 1.16663 13.128V9.68173H0ZM4.10334 9.68173V9.27944H5.90022V9.68173H4.10334ZM9.789 9.68173V9.27944H12.3636V9.68173H9.789ZM10.9288 6.55729V0.120686H17.352V2.26622C17.352 2.29304 17.3386 2.30645 17.3118 2.30645H13.4901V5.13587H16.9095V5.16269C16.9095 5.23421 16.9006 5.69461 16.8827 6.54388C16.8559 6.54388 16.8425 6.54835 16.8425 6.55729H17.0034V7.21436H14.0398V9.89628H13.2487V10.1645H14.0398V10.9825H17.3922V11.2775H17.1375V12.8866H13.1146V13.1682H11.2104V8.48827H10.9288V6.83889H8.83692V6.55729H10.9288ZM12.015 6.55729H10.9422V6.83889H12.015V6.55729ZM18.3846 0.0268192H21.1738C21.1916 0.178795 21.5448 1.88628 22.2331 5.14928H22.8097V5.65885H22.1124V5.14928H21.1335V5.65885H22.1124V8.00553H22.4208V9.2258H23.1986V7.42892H23.4802V5.65885H24.03V5.14928H23.6009C24.2892 1.88628 24.6424 0.178795 24.6602 0.0268192H27.4494C26.4393 4.41623 25.9342 6.65116 25.9342 6.73162V9.01125H25.1698V9.46717H25.7464V10.8081H24.7005V13.1682H21.4419C21.4151 13.1682 21.3257 12.833 21.1738 12.1625H22.0186V11.6127H21.0799C21.0441 11.6127 20.9547 11.2596 20.8117 10.5534C20.7491 10.3388 19.9401 6.82995 18.3846 0.0268192ZM27.6506 9.30626V0H30.2655V5.40407H29.7559V10.9825H33.6581V12.1491H32.8803V12.4173H33.6581V13.1682H31.1371V12.9671H27.6774C27.6595 12.824 27.6506 12.7123 27.6506 12.6318V9.69514H28.3211V9.30626H27.6506ZM33.6581 12.4173V12.1491H34.6102V12.4173H33.6581ZM35.3879 0.0268192H37.8687C37.8955 0.0357589 37.9089 0.0536385 37.9089 0.0804577V6.46343C37.9089 6.49024 37.8955 6.50365 37.8687 6.50365H37.5737V13.128C37.5737 13.1548 37.5603 13.1682 37.5335 13.1682H35.3879C35.3611 13.1682 35.3477 13.1548 35.3477 13.128V6.34274H34.6906C34.6549 6.34274 34.637 6.32933 34.637 6.30251V6.02091C34.6459 5.98515 34.6638 5.96727 34.6906 5.96727H35.3477V0.0804577C35.3566 0.0446987 35.37 0.0268192 35.3879 0.0268192ZM36.635 5.96727H35.3611V6.34274H36.635V5.96727ZM38.3112 6.03432V0.0938672H44.8685V2.26622H40.9127V5.36384H44.3187L44.3724 5.39066L44.3455 5.4443C44.3277 5.88234 44.3187 6.13713 44.3187 6.20864H43.9432V6.23546C43.9432 6.38744 43.9298 6.72268 43.903 7.24118H44.2517C44.2517 7.49149 44.2338 7.61665 44.198 7.61665H41.7977V8.05917H40.5372V8.30054H40.9127V9.45377H42.1598V9.65491H40.9127V12.8196L40.8859 12.9671H39.5449V13.1682H38.3514C38.3246 13.1682 38.3112 13.1548 38.3112 13.128V12.7928L38.3246 12.5782H38.9683V12.243H38.3112V10.9825H38.6196V6.36956H39.1426V6.03432H38.3112ZM40.8859 9.45377H39.6924V9.65491H40.8859V9.45377ZM44.5064 2.22599V0.0268192H52.2036V2.22599H49.6557V11.3043H50.809V11.5725H49.6557V12.5782H48.9718V12.9269H49.4546V13.1682H47.1213C47.0856 13.1682 47.0677 13.1548 47.0677 13.128V2.22599H44.5064ZM49.6423 11.3043H48.7439V11.5725H49.6423V11.3043ZM52.3913 0.0268192H54.8587C54.8855 0.0357589 54.8989 0.0536385 54.8989 0.0804577V6.46343C54.8989 6.49024 54.8855 6.50365 54.8587 6.50365H54.5636V13.128C54.5636 13.1548 54.5502 13.1682 54.5234 13.1682H52.3913C52.3555 13.1682 52.3376 13.1548 52.3376 13.128V6.34274H51.6806C51.6538 6.34274 51.6403 6.32933 51.6403 6.30251V6.02091C51.6403 5.98515 51.6538 5.96727 51.6806 5.96727H52.3376V0.0804577C52.3466 0.0446987 52.3645 0.0268192 52.3913 0.0268192ZM53.625 5.96727H52.3645V6.34274H53.625V5.96727ZM55.6766 0.0670481H58.3586C58.3943 0.0670481 58.6804 0.768817 59.2168 2.17235C59.2615 2.22599 59.8247 3.60718 60.9064 6.31592H61.5903V0.0670481H63.9235V7.50937H64.1917V10.4058H63.2531V10.9556H64.1917V12.6855H60.6784V10.4863H60.0616C59.2212 8.43911 58.6536 7.02216 58.3586 6.23546V4.03629H58.0233V10.7545H57.5003V13.0744H55.3012V8.08599H55.7035V8.05917C55.6856 3.74128 55.6766 1.07724 55.6766 0.0670481ZM60.8527 6.31592H59.6191V6.79867H61.0807C60.9645 6.47683 60.8885 6.31592 60.8527 6.31592ZM62.6764 6.31592H61.6037V6.79867H61.0941C61.407 7.57642 61.5947 8.08152 61.6573 8.31395H61.6707V8.26031C61.626 7.46467 61.6037 6.97746 61.6037 6.79867H62.6764V6.31592ZM60.6784 13.1682V12.9269H64.9293V13.1682H60.6784ZM69.9847 0.0670481H70.0115C71.9693 0.0670481 73.1672 0.701769 73.6053 1.97121C73.8019 2.44502 73.9003 3.11103 73.9003 3.96924L71.7816 4.26425L71.7547 4.21061V4.17038C71.7547 3.13338 71.4061 2.51653 70.7088 2.31986C70.4942 2.26622 70.2305 2.23046 69.9176 2.21258C69.1667 2.21258 68.6839 2.61934 68.4694 3.43286C68.3353 3.96924 68.2683 4.60396 68.2683 5.33702V6.36956C68.2683 7.55854 68.2861 8.45699 68.3219 9.06489H68.8583V10.8886H71.4597V7.76416H69.8104V6.08796H74.7719V6.45002H74.1282V8.381H72.7873V8.99784H73.4444V12.7123H66.3641V10.7277H65.5461V10.5534H65.8948V10.3656H66.3641V9.61468H65.117V8.03235H65.707C65.6981 7.56748 65.6936 7.30376 65.6936 7.24118C65.6936 4.46093 65.8411 2.78473 66.1361 2.21258C66.2255 1.84605 66.4803 1.44824 66.9005 1.01913C67.5173 0.384409 68.5454 0.0670481 69.9847 0.0670481ZM68.1878 13.1682V12.9134H70.8831V13.1682H68.1878Z" fill="#402E32"/>
</svg>
