<svg width="530" height="416" viewBox="0 0 530 416" fill="none" xmlns="http://www.w3.org/2000/svg">
<g clip-path="url(#clip0_2927_1978)">
<path d="M20.373 0C14.9716 0.00619312 9.79324 2.17059 5.9739 6.01836C2.15455 9.86614 0.00614061 15.0831 0 20.5246V395.162C0.00623008 400.604 2.15468 405.82 5.97401 409.668C9.79335 413.516 14.9717 415.68 20.373 415.686H224.064C229.466 415.68 234.644 413.516 238.463 409.668C242.283 405.82 244.431 400.604 244.437 395.162V20.5246C244.431 15.083 242.283 9.86612 238.463 6.01835C234.644 2.17059 229.466 0.00619139 224.064 0H20.373Z" fill="#E6E6E6"/>
<path d="M27.0307 11.6611C22.9328 11.6658 19.0041 13.3079 16.1065 16.2271C13.2088 19.1463 11.5789 23.1043 11.5742 27.2327V388.453C11.5788 392.582 13.2087 396.54 16.1064 399.459C19.004 402.378 22.9328 404.02 27.0307 404.025H217.405C221.503 404.02 225.432 402.378 228.329 399.459C231.227 396.54 232.857 392.582 232.861 388.453V27.2327C232.857 23.1043 231.227 19.1463 228.329 16.2271C225.431 13.3079 221.503 11.6658 217.405 11.6611H27.0307Z" fill="white"/>
<path d="M214.139 87.7937H30.2999C29.3973 87.7926 28.532 87.4309 27.8938 86.7879C27.2556 86.1449 26.8966 85.2732 26.8955 84.3639V38.4219C26.8966 37.5126 27.2556 36.6409 27.8938 35.9979C28.532 35.3549 29.3973 34.9933 30.2999 34.9922H214.139C215.041 34.9933 215.907 35.3549 216.545 35.9979C217.183 36.6409 217.542 37.5126 217.543 38.4219V84.3639C217.542 85.2732 217.183 86.145 216.545 86.7879C215.907 87.4309 215.041 87.7926 214.139 87.7937V87.7937ZM30.2999 36.3641C29.7584 36.3647 29.2391 36.5817 28.8562 36.9675C28.4732 37.3533 28.2578 37.8763 28.2573 38.4219V84.3639C28.2578 84.9095 28.4732 85.4326 28.8562 85.8184C29.2391 86.2042 29.7584 86.4212 30.2999 86.4218H214.139C214.68 86.4212 215.2 86.2042 215.583 85.8184C215.966 85.4326 216.181 84.9095 216.182 84.3639V38.4219C216.181 37.8763 215.966 37.3533 215.583 36.9675C215.2 36.5817 214.68 36.3647 214.139 36.3641L30.2999 36.3641Z" fill="#E6E6E6"/>
<path d="M214.139 269.57H30.2999C29.3974 269.569 28.5321 269.207 27.8938 268.564C27.2556 267.921 26.8966 267.05 26.8955 266.14V181.099C26.8966 180.19 27.2556 179.318 27.8938 178.675C28.532 178.032 29.3973 177.671 30.2999 177.669H214.139C215.041 177.671 215.907 178.032 216.545 178.675C217.183 179.318 217.542 180.19 217.543 181.099V266.14C217.542 267.05 217.183 267.921 216.545 268.564C215.907 269.207 215.041 269.569 214.139 269.57V269.57ZM30.2999 179.041C29.7584 179.042 29.2391 179.259 28.8562 179.645C28.4732 180.031 28.2578 180.554 28.2573 181.099V266.14C28.2578 266.686 28.4732 267.209 28.8562 267.595C29.2391 267.981 29.7584 268.198 30.2999 268.198H214.139C214.68 268.198 215.2 267.981 215.583 267.595C215.965 267.209 216.181 266.686 216.181 266.14V181.099C216.181 180.554 215.965 180.03 215.583 179.645C215.2 179.259 214.68 179.042 214.139 179.041L30.2999 179.041Z" fill="#E6E6E6"/>
<path d="M212.777 159.132H131.07C130.168 159.131 129.303 158.769 128.664 158.126C128.026 157.483 127.667 156.612 127.666 155.702V109.76C127.667 108.851 128.026 107.979 128.664 107.336C129.303 106.693 130.168 106.332 131.07 106.331H212.777C213.679 106.332 214.545 106.693 215.183 107.336C215.821 107.979 216.18 108.851 216.181 109.76V155.702C216.18 156.612 215.821 157.483 215.183 158.126C214.545 158.769 213.679 159.131 212.777 159.132V159.132ZM131.07 107.702C130.529 107.703 130.01 107.92 129.627 108.306C129.244 108.692 129.028 109.215 129.028 109.76V155.702C129.028 156.248 129.244 156.771 129.627 157.157C130.01 157.543 130.529 157.76 131.07 157.76H212.777C213.318 157.76 213.838 157.543 214.22 157.157C214.603 156.771 214.819 156.248 214.819 155.702V109.76C214.819 109.215 214.603 108.692 214.22 108.306C213.838 107.92 213.318 107.703 212.777 107.702L131.07 107.702Z" fill="#E6E6E6"/>
<path d="M112.006 380.695H30.2999C29.3973 380.694 28.532 380.332 27.8938 379.689C27.2556 379.046 26.8966 378.174 26.8955 377.265V291.538C26.8966 290.628 27.2556 289.757 27.8938 289.114C28.5321 288.471 29.3974 288.109 30.2999 288.108H112.006C112.909 288.109 113.774 288.471 114.412 289.114C115.051 289.757 115.41 290.628 115.411 291.538V377.265C115.41 378.174 115.051 379.046 114.412 379.689C113.774 380.332 112.909 380.694 112.006 380.695V380.695ZM30.2999 289.48C29.7584 289.48 29.2391 289.697 28.8562 290.083C28.4732 290.469 28.2578 290.992 28.2573 291.538V377.265C28.2578 377.81 28.4732 378.334 28.8562 378.719C29.2391 379.105 29.7584 379.322 30.2999 379.323H112.006C112.548 379.322 113.067 379.105 113.45 378.719C113.833 378.334 114.048 377.81 114.049 377.265V291.538C114.048 290.992 113.833 290.469 113.45 290.083C113.067 289.697 112.548 289.48 112.006 289.48H30.2999Z" fill="#E6E6E6"/>
<path d="M212.777 380.695H131.07C130.168 380.694 129.303 380.332 128.664 379.689C128.026 379.046 127.667 378.174 127.666 377.265V291.538C127.667 290.628 128.026 289.757 128.664 289.114C129.303 288.471 130.168 288.109 131.07 288.108H212.777C213.679 288.109 214.545 288.471 215.183 289.114C215.821 289.757 216.18 290.628 216.181 291.538V377.265C216.18 378.174 215.821 379.046 215.183 379.689C214.545 380.332 213.679 380.694 212.777 380.695V380.695ZM131.07 289.48C130.529 289.48 130.01 289.697 129.627 290.083C129.244 290.469 129.028 290.992 129.028 291.538V377.265C129.028 377.81 129.244 378.334 129.627 378.719C130.01 379.105 130.529 379.322 131.07 379.323H212.777C213.318 379.322 213.838 379.105 214.22 378.719C214.603 378.334 214.819 377.81 214.819 377.265V291.538C214.819 290.992 214.603 290.469 214.22 290.083C213.838 289.697 213.318 289.48 212.777 289.48H131.07Z" fill="#E6E6E6"/>
<path d="M57.5026 221.766C65.1615 221.766 71.3704 215.511 71.3704 207.795C71.3704 200.079 65.1615 193.824 57.5026 193.824C49.8436 193.824 43.6348 200.079 43.6348 207.795C43.6348 215.511 49.8436 221.766 57.5026 221.766Z" fill="#E6E6E6"/>
<path d="M89.5291 198.481C88.9161 198.481 88.3282 198.727 87.8947 199.163C87.4613 199.6 87.2178 200.192 87.2178 200.81C87.2178 201.428 87.4613 202.02 87.8947 202.456C88.3282 202.893 88.9161 203.138 89.5291 203.138H198.49C199.102 203.137 199.689 202.891 200.121 202.455C200.553 202.018 200.796 201.427 200.796 200.81C200.796 200.193 200.553 199.602 200.121 199.165C199.689 198.729 199.102 198.483 198.49 198.481H89.5291Z" fill="#E6E6E6"/>
<path d="M89.5286 212.452C88.916 212.451 88.3283 212.696 87.8944 213.132C87.4606 213.567 87.2161 214.159 87.2148 214.776C87.2136 215.393 87.4555 215.985 87.8875 216.423C88.3195 216.86 88.9063 217.107 89.5189 217.109H136.415C137.028 217.109 137.616 216.864 138.049 216.427C138.483 215.99 138.726 215.398 138.726 214.781C138.726 214.163 138.483 213.571 138.049 213.134C137.616 212.697 137.028 212.452 136.415 212.452H89.5286Z" fill="#E6E6E6"/>
<path d="M46.8656 234.788C45.1075 234.788 43.6768 235.833 43.6768 237.117C43.6768 238.4 45.1075 239.445 46.8656 239.445H197.199C198.957 239.445 200.388 238.4 200.388 237.117C200.388 235.833 198.957 234.788 197.199 234.788H46.8656Z" fill="#E6E6E6"/>
<path d="M46.8656 248.759C45.1075 248.759 43.6768 249.803 43.6768 251.087C43.6768 252.371 45.1075 253.416 46.8656 253.416H197.199C198.957 253.416 200.388 252.371 200.388 251.087C200.388 249.803 198.957 248.759 197.199 248.759H46.8656Z" fill="#E6E6E6"/>
<path d="M58.8629 73.6007C66.5219 73.6007 72.7307 67.3457 72.7307 59.6297C72.7307 51.9137 66.5219 45.6587 58.8629 45.6587C51.2039 45.6587 44.9951 51.9137 44.9951 59.6297C44.9951 67.3457 51.2039 73.6007 58.8629 73.6007Z" fill="#E6E6E6"/>
<path d="M90.8918 50.3159C90.2798 50.3174 89.6933 50.5633 89.261 50.9998C88.8287 51.4364 88.5859 52.0278 88.5859 52.6444C88.5859 53.261 88.8287 53.8524 89.261 54.2889C89.6933 54.7255 90.2798 54.9714 90.8918 54.9729H199.853C200.157 54.9738 200.458 54.9145 200.739 54.7982C201.02 54.6819 201.275 54.511 201.49 54.2952C201.706 54.0794 201.877 53.823 201.994 53.5406C202.111 53.2582 202.171 52.9553 202.172 52.6493C202.172 52.3433 202.113 52.0402 201.997 51.7573C201.882 51.4744 201.712 51.2173 201.497 51.0006C201.283 50.7838 201.028 50.6118 200.748 50.4944C200.467 50.3769 200.167 50.3163 199.863 50.3159C199.86 50.3159 199.856 50.3159 199.853 50.3159H90.8918Z" fill="#E6E6E6"/>
<path d="M90.8915 64.2866C90.2791 64.2876 89.6922 64.5334 89.2596 64.97C88.827 65.4066 88.584 65.9982 88.584 66.6151C88.584 67.232 88.827 67.8237 89.2596 68.2603C89.6922 68.6968 90.2791 68.9426 90.8915 68.9436H137.778C138.391 68.9449 138.979 68.7009 139.414 68.2651C139.848 67.8293 140.093 67.2376 140.094 66.62C140.095 66.0025 139.853 65.4097 139.42 64.9721C138.988 64.5345 138.401 64.2879 137.788 64.2866C137.784 64.2866 137.781 64.2866 137.778 64.2866H90.8915Z" fill="#E6E6E6"/>
<path d="M111.933 159.141H35.2852L53.3229 127.665C53.6462 127.101 54.1112 126.633 54.6711 126.307C55.2311 125.981 55.8663 125.81 56.5129 125.81C57.1595 125.81 57.7947 125.981 58.3546 126.307C58.9146 126.633 59.3796 127.101 59.7028 127.665L67.4083 141.111L80.5103 118.249C80.9151 117.543 81.4973 116.956 82.1983 116.548C82.8994 116.14 83.6947 115.926 84.5042 115.926C85.3138 115.926 86.109 116.14 86.8101 116.548C87.5112 116.956 88.0933 117.543 88.4981 118.249L111.933 159.141ZM37.6436 157.769H109.574L87.3186 118.935C87.0334 118.437 86.6232 118.024 86.1292 117.736C85.6352 117.449 85.0748 117.298 84.5043 117.298C83.9338 117.298 83.3734 117.449 82.8794 117.736C82.3854 118.024 81.9752 118.437 81.69 118.935L67.4084 143.855L58.5233 128.351C58.3196 127.996 58.0266 127.7 57.6737 127.495C57.3208 127.29 56.9205 127.182 56.5129 127.182C56.1054 127.182 55.7051 127.29 55.3522 127.495C54.9992 127.7 54.7062 127.996 54.5025 128.351L37.6436 157.769Z" fill="#E6E6E6"/>
<path d="M209.981 159.141H133.333L151.371 127.665C151.694 127.101 152.159 126.633 152.719 126.307C153.279 125.981 153.914 125.81 154.561 125.81C155.207 125.81 155.843 125.981 156.402 126.307C156.962 126.633 157.427 127.101 157.751 127.665L165.456 141.111L178.558 118.249C178.963 117.543 179.545 116.956 180.246 116.548C180.947 116.14 181.743 115.926 182.552 115.926C183.362 115.926 184.157 116.14 184.858 116.548C185.559 116.956 186.141 117.543 186.546 118.249L209.981 159.141ZM135.692 157.769H207.622L185.366 118.935C185.081 118.437 184.671 118.024 184.177 117.736C183.683 117.449 183.123 117.298 182.552 117.298C181.982 117.298 181.421 117.449 180.927 117.736C180.433 118.024 180.023 118.437 179.738 118.935L165.456 143.855L156.571 128.351C156.367 127.996 156.074 127.7 155.722 127.495C155.369 127.29 154.968 127.182 154.561 127.182C154.153 127.182 153.753 127.29 153.4 127.495C153.047 127.7 152.754 127.996 152.55 128.351L135.692 157.769Z" fill="#E6E6E6"/>
<path d="M112.006 159.132H30.2999C29.3973 159.131 28.532 158.769 27.8938 158.126C27.2556 157.483 26.8966 156.612 26.8955 155.702V109.76C26.8966 108.851 27.2556 107.979 27.8938 107.336C28.532 106.693 29.3973 106.332 30.2999 106.331H112.006C112.909 106.332 113.774 106.693 114.412 107.336C115.051 107.979 115.41 108.851 115.411 109.76V155.702C115.41 156.612 115.051 157.483 114.412 158.126C113.774 158.769 112.909 159.131 112.006 159.132V159.132ZM30.2999 107.702C29.7583 107.703 29.2391 107.92 28.8562 108.306C28.4732 108.692 28.2578 109.215 28.2572 109.76V155.702C28.2578 156.248 28.4732 156.771 28.8562 157.157C29.2391 157.543 29.7583 157.76 30.2999 157.76H112.006C112.548 157.76 113.067 157.543 113.45 157.157C113.833 156.771 114.048 156.248 114.049 155.702V109.76C114.048 109.215 113.833 108.692 113.45 108.306C113.067 107.92 112.548 107.703 112.006 107.702L30.2999 107.702Z" fill="#E6E6E6"/>
<path d="M47.7087 305.787C47.4049 305.786 47.1039 305.846 46.823 305.963C46.5422 306.08 46.2869 306.251 46.0719 306.467C45.8569 306.684 45.6863 306.94 45.5699 307.223C45.4535 307.506 45.3936 307.809 45.3936 308.115C45.3936 308.421 45.4535 308.724 45.5699 309.007C45.6863 309.29 45.8569 309.547 46.0719 309.763C46.2869 309.979 46.5422 310.151 46.823 310.267C47.1039 310.384 47.4049 310.444 47.7087 310.444H94.5951C94.8989 310.444 95.1999 310.384 95.4808 310.267C95.7616 310.151 96.0169 309.979 96.2319 309.763C96.447 309.547 96.6175 309.29 96.7339 309.007C96.8503 308.724 96.9102 308.421 96.9102 308.115C96.9102 307.809 96.8503 307.506 96.7339 307.223C96.6175 306.94 96.447 306.684 96.2319 306.467C96.0169 306.251 95.7616 306.08 95.4808 305.963C95.1999 305.846 94.8989 305.786 94.5951 305.787H47.7087Z" fill="#E6E6E6"/>
<path d="M47.7088 319.505C47.0958 319.505 46.5079 319.751 46.0744 320.187C45.641 320.624 45.3975 321.216 45.3975 321.834C45.3975 322.451 45.641 323.044 46.0744 323.48C46.5079 323.917 47.0958 324.162 47.7088 324.162H94.5952C95.2082 324.162 95.7961 323.917 96.2295 323.48C96.663 323.044 96.9065 322.451 96.9065 321.834C96.9065 321.216 96.663 320.624 96.2295 320.187C95.7961 319.751 95.2082 319.505 94.5952 319.505H47.7088Z" fill="#E6E6E6"/>
<path d="M71.1521 363.016C68.2747 363.016 65.4618 362.156 63.0693 360.546C60.6768 358.935 58.8121 356.646 57.711 353.968C56.6098 351.29 56.3217 348.343 56.8831 345.5C57.4444 342.656 58.8301 340.045 60.8647 337.995C62.8994 335.945 65.4917 334.549 68.3138 333.984C71.136 333.418 74.0612 333.709 76.7196 334.818C79.378 335.927 81.6502 337.806 83.2488 340.216C84.8474 342.626 85.7007 345.46 85.7007 348.359C85.6963 352.245 84.1621 355.97 81.4347 358.718C78.7073 361.466 75.0093 363.011 71.1521 363.016V363.016ZM71.1521 335.074C68.544 335.074 65.9945 335.853 63.8259 337.313C61.6573 338.773 59.9671 340.848 58.9691 343.275C57.971 345.703 57.7098 348.374 58.2187 350.951C58.7275 353.528 59.9834 355.895 61.8276 357.753C63.6718 359.611 66.0215 360.876 68.5795 361.389C71.1375 361.901 73.7889 361.638 76.1985 360.633C78.6081 359.627 80.6676 357.924 82.1166 355.74C83.5656 353.555 84.3389 350.987 84.3389 348.359C84.3349 344.837 82.9442 341.46 80.4721 338.97C78 336.479 74.6482 335.078 71.1521 335.074V335.074Z" fill="#E6E6E6"/>
<path d="M195.367 363.016C195.671 363.016 195.972 362.957 196.252 362.84C196.533 362.723 196.789 362.552 197.004 362.335C197.219 362.119 197.389 361.862 197.506 361.579C197.622 361.297 197.682 360.994 197.682 360.687C197.682 360.381 197.622 360.078 197.506 359.795C197.389 359.513 197.219 359.256 197.004 359.04C196.789 358.823 196.533 358.652 196.252 358.535C195.972 358.418 195.671 358.358 195.367 358.359H148.48C147.868 358.36 147.281 358.606 146.848 359.042C146.416 359.479 146.173 360.071 146.173 360.687C146.173 361.304 146.416 361.896 146.848 362.333C147.281 362.769 147.868 363.015 148.48 363.016H195.367Z" fill="#E6E6E6"/>
<path d="M195.366 349.297C195.669 349.297 195.97 349.237 196.251 349.121C196.532 349.004 196.787 348.832 197.002 348.616C197.217 348.4 197.388 348.143 197.504 347.86C197.621 347.577 197.681 347.274 197.681 346.968C197.681 346.662 197.621 346.359 197.504 346.076C197.388 345.793 197.217 345.537 197.002 345.32C196.787 345.104 196.532 344.933 196.251 344.816C195.97 344.699 195.669 344.639 195.366 344.64H148.479C147.866 344.64 147.278 344.885 146.845 345.322C146.411 345.758 146.168 346.351 146.168 346.968C146.168 347.586 146.411 348.178 146.845 348.615C147.278 349.051 147.866 349.297 148.479 349.297H195.366Z" fill="#E6E6E6"/>
<path d="M171.924 305.787C174.801 305.787 177.614 306.646 180.006 308.257C182.399 309.867 184.263 312.156 185.365 314.835C186.466 317.513 186.754 320.46 186.193 323.303C185.631 326.146 184.246 328.758 182.211 330.807C180.176 332.857 177.584 334.253 174.762 334.819C171.94 335.384 169.014 335.094 166.356 333.984C163.698 332.875 161.425 330.997 159.827 328.586C158.228 326.176 157.375 323.342 157.375 320.443V320.443C157.379 316.558 158.914 312.832 161.641 310.084C164.368 307.337 168.066 305.791 171.924 305.787V305.787ZM171.924 333.728C174.532 333.728 177.081 332.949 179.25 331.489C181.418 330.03 183.108 327.955 184.107 325.527C185.105 323.1 185.366 320.429 184.857 317.852C184.348 315.275 183.092 312.908 181.248 311.05C179.404 309.192 177.054 307.926 174.496 307.414C171.938 306.901 169.287 307.164 166.877 308.17C164.468 309.175 162.408 310.878 160.959 313.063C159.51 315.247 158.737 317.816 158.737 320.443V320.443C158.741 323.965 160.131 327.342 162.604 329.833C165.076 332.323 168.427 333.724 171.924 333.728V333.728Z" fill="#E6E6E6"/>
<path opacity="0.3" d="M149.636 119.626C168.655 119.626 184.074 104.093 184.074 84.9319C184.074 65.7709 168.655 50.2378 149.636 50.2378C130.617 50.2378 115.198 65.7709 115.198 84.9319C115.198 104.093 130.617 119.626 149.636 119.626Z" fill="#B45309"/>
<path opacity="0.3" d="M149.636 108.061C162.316 108.061 172.595 97.7056 172.595 84.9316C172.595 72.1576 162.316 61.8022 149.636 61.8022C136.957 61.8022 126.678 72.1576 126.678 84.9316C126.678 97.7056 136.957 108.061 149.636 108.061Z" fill="#B45309"/>
<path d="M149.636 100.994C158.441 100.994 165.579 93.8025 165.579 84.9317C165.579 76.0609 158.441 68.8696 149.636 68.8696C140.83 68.8696 133.692 76.0609 133.692 84.9317C133.692 93.8025 140.83 100.994 149.636 100.994Z" fill="#B45309"/>
<path opacity="0.3" d="M71.1946 345.087C85.2553 345.087 96.6538 333.603 96.6538 319.438C96.6538 305.272 85.2553 293.789 71.1946 293.789C57.1338 293.789 45.7354 305.272 45.7354 319.438C45.7354 333.603 57.1338 345.087 71.1946 345.087Z" fill="#B45309"/>
<path opacity="0.3" d="M71.1955 336.537C80.5693 336.537 88.1683 328.882 88.1683 319.438C88.1683 309.994 80.5693 302.339 71.1955 302.339C61.8217 302.339 54.2227 309.994 54.2227 319.438C54.2227 328.882 61.8217 336.537 71.1955 336.537Z" fill="#B45309"/>
<path d="M71.1949 331.312C77.7045 331.312 82.9816 325.996 82.9816 319.438C82.9816 312.88 77.7045 307.563 71.1949 307.563C64.6853 307.563 59.4082 312.88 59.4082 319.438C59.4082 325.996 64.6853 331.312 71.1949 331.312Z" fill="#B45309"/>
<path opacity="0.3" d="M177.059 248.714C193.233 248.714 206.345 235.505 206.345 219.211C206.345 202.916 193.233 189.707 177.059 189.707C160.885 189.707 147.773 202.916 147.773 219.211C147.773 235.505 160.885 248.714 177.059 248.714Z" fill="#B45309"/>
<path opacity="0.3" d="M177.059 238.88C187.842 238.88 196.583 230.073 196.583 219.211C196.583 208.348 187.842 199.542 177.059 199.542C166.276 199.542 157.535 208.348 157.535 219.211C157.535 230.073 166.276 238.88 177.059 238.88Z" fill="#B45309"/>
<path d="M177.059 232.87C184.547 232.87 190.617 226.755 190.617 219.211C190.617 211.667 184.547 205.552 177.059 205.552C169.571 205.552 163.501 211.667 163.501 219.211C163.501 226.755 169.571 232.87 177.059 232.87Z" fill="#B45309"/>
<path d="M313.191 265.02L307.166 275.273C306.571 276.287 305.75 277.149 304.77 277.791C303.789 278.433 302.674 278.839 301.512 278.976C300.351 279.113 299.173 278.978 298.071 278.582C296.97 278.186 295.974 277.538 295.161 276.69V276.69C294.405 275.901 293.826 274.958 293.464 273.924C293.101 272.89 292.963 271.789 293.059 270.697C293.155 269.604 293.483 268.546 294.021 267.592C294.559 266.638 295.293 265.812 296.176 265.17L305.975 258.032C315.383 245.201 320.79 223.392 325.397 199.792L344.543 202.054C339.608 221.357 327.807 242.759 313.191 265.02Z" fill="#FFB8B8"/>
<path d="M315.562 206.675L346.696 215.569V160.798L342.563 162.145C338.953 163.322 335.672 165.347 332.992 168.053C330.313 170.76 328.311 174.07 327.152 177.71L315.562 206.675Z" fill="#E6E6E6"/>
<path d="M379.223 402.823L367.606 402.355C363.791 362.8 358.92 326.878 349.019 308.26C339.431 318.607 337.252 351.296 335.648 395.801H324.391C312.558 344.512 309.57 308.147 324.391 273.618H384.799L379.223 402.823Z" fill="#2F2E41"/>
<path d="M336.35 403.732L316.186 414.11C315.646 414.388 315.056 414.551 314.451 414.59C313.846 414.63 313.239 414.543 312.669 414.337C312.098 414.131 311.575 413.81 311.133 413.392C310.69 412.975 310.337 412.471 310.096 411.911V411.911C309.667 410.917 309.611 409.799 309.938 408.767C310.265 407.734 310.954 406.856 311.876 406.297L314.625 404.628L322.281 393.097L335.329 392.06L337.716 394.364C338.38 395.005 338.882 395.797 339.181 396.674C339.479 397.551 339.565 398.486 339.432 399.403C339.298 400.32 338.948 401.192 338.412 401.945C337.876 402.698 337.169 403.311 336.35 403.732Z" fill="#2F2E41"/>
<path d="M377.323 413.458L354.69 414.098C354.084 414.116 353.481 414.008 352.918 413.781C352.355 413.554 351.844 413.214 351.417 412.781C350.989 412.348 350.655 411.831 350.433 411.263C350.212 410.694 350.108 410.086 350.129 409.476C350.165 408.392 350.591 407.359 351.327 406.569C352.063 405.778 353.059 405.284 354.13 405.177L357.325 404.861L369.156 397.764L381.381 402.476L382.553 405.59C382.88 406.457 382.995 407.389 382.891 408.31C382.786 409.231 382.465 410.113 381.953 410.883C381.441 411.653 380.754 412.289 379.948 412.736C379.143 413.184 378.243 413.432 377.323 413.458V413.458Z" fill="#2F2E41"/>
<path d="M354.312 150.671C362.701 150.671 369.503 143.819 369.503 135.366C369.503 126.914 362.701 120.062 354.312 120.062C345.922 120.062 339.12 126.914 339.12 135.366C339.12 143.819 345.922 150.671 354.312 150.671Z" fill="#FFB8B8"/>
<path d="M379.222 159.862L347.625 172.033C349.465 162.039 349.488 152.624 346.463 144.179L366.676 140.668C364.98 149.448 370.234 155.411 379.222 159.862Z" fill="#FFB8B8"/>
<path d="M392.234 282.513C364.423 287.832 342.029 284.419 323.927 274.086C332.299 245.024 333.49 212.87 331.299 179.259C331.082 175.898 331.909 172.553 333.663 169.686C335.417 166.819 338.012 164.572 341.09 163.257L349.019 159.862C353.295 169.65 363.148 164.009 373.647 156.585L386.62 162.36C388.68 163.276 390.413 164.804 391.587 166.74C392.761 168.676 393.319 170.927 393.188 173.192C390.595 217.839 387.109 265.706 392.234 282.513Z" fill="#E6E6E6"/>
<path d="M401.527 275.959L400.7 287.9C400.55 290.076 399.55 292.104 397.921 293.54C396.291 294.976 394.163 295.705 392.002 295.566V295.566C390.586 295.475 389.218 295.015 388.032 294.231C386.845 293.448 385.88 292.367 385.233 291.096C384.585 289.824 384.276 288.405 384.335 286.977C384.395 285.549 384.822 284.161 385.574 282.949L392.234 272.214C396.169 256.761 393.047 234.504 388.517 210.888L407.104 205.739C409.728 225.496 406.772 249.796 401.527 275.959Z" fill="#FFB8B8"/>
<path d="M371.702 125.423C371.702 125.423 374.542 119.128 367.158 116.267C367.158 116.267 360.91 105.967 348.414 112.834C348.414 112.834 339.895 116.267 339.895 125.423C339.895 134.578 337.055 136.295 337.055 136.295C337.055 136.295 341.284 131.924 342.42 128.49C343.556 125.057 352.39 124.278 355.798 127.712C359.206 131.145 367.726 130.573 367.726 130.573L367.158 143.161C367.158 143.161 369.998 135.722 371.134 135.722C372.27 135.722 373.406 125.423 371.702 125.423Z" fill="#2F2E41"/>
<path d="M413.609 206.207L382.476 215.101V160.33L386.608 161.677C390.219 162.853 393.499 164.879 396.179 167.585C398.859 170.291 400.861 173.601 402.02 177.241L413.609 206.207Z" fill="#E6E6E6"/>
<path d="M530 414.053H143.471V415.338H530V414.053Z" fill="#E6E6E6"/>
<path d="M435.345 310.359C443.795 322.393 446.027 390.881 446.524 412.835C446.537 413.33 446.55 413.799 446.556 414.242H467.946C468.207 413.773 468.45 413.31 468.679 412.835C481.357 387.624 474.323 357.395 473.953 355.866C474.916 360.672 470.561 374.601 465.637 388.093C462.633 346.608 436.952 312.453 435.345 310.359Z" fill="#E6E6E6"/>
</g>
<defs>
<clipPath id="clip0_2927_1978">
<rect width="530" height="415.686" fill="white"/>
</clipPath>
</defs>
</svg>
