<svg width="530" height="416" viewBox="0 0 530 416" fill="none" xmlns="http://www.w3.org/2000/svg">
<path d="M478.039 215.818C478.108 267.134 456.021 316.474 416.42 353.469C414.033 355.714 411.581 357.904 409.065 360.041C405.231 363.316 401.268 366.463 397.177 369.484C358.904 397.801 311.125 413.713 261.547 414.653C259.895 414.687 258.237 414.704 256.573 414.704C217.033 414.704 167.302 395.738 122.171 369.484C118.437 367.312 114.736 365.09 111.069 362.817C109.354 361.765 107.648 360.698 105.951 359.615C88.5444 348.578 72.0222 336.457 56.5061 323.341C46.3472 314.78 36.8208 305.632 27.9875 295.957C-6.68987 257.545 -14.3385 222.933 35.1 215.818C40.9533 214.979 46.6342 214.081 52.1426 213.126C60.1216 211.749 67.7577 210.262 75.051 208.664C84.8751 206.52 94.1049 204.195 102.741 201.689C105.645 200.85 108.484 199.993 111.256 199.12C152.235 186.195 179.663 169.34 198.332 151.052C201.499 147.956 204.418 144.823 207.091 141.653C211.179 136.827 214.892 131.755 218.205 126.471C222.777 119.13 226.617 111.441 229.681 103.492L229.849 103.056C244.704 64.5763 240.185 28.8845 256.573 16.9388C326.626 -34.1302 413.84 38.5968 454.775 124.361C456.839 128.683 458.779 133.03 460.598 137.404C461.414 139.358 462.202 141.315 462.96 143.276C464.955 148.387 466.765 153.511 468.39 158.648C469.013 160.607 469.607 162.564 470.172 164.52C470.777 166.63 471.357 168.735 471.893 170.84C475.876 186.251 478.039 201.449 478.039 215.818Z" fill="#F2F2F2"/>
<path d="M261.454 414.863C259.803 414.899 258.145 414.916 256.481 414.916C216.956 414.916 167.242 394.952 122.127 367.316C118.395 365.03 114.695 362.691 111.029 360.298L114.245 341.796L211.585 329.575L260.438 364.9L261.454 414.863Z" fill="#2F2E41"/>
<path d="M266.139 84.4751H252.268C251.839 84.4753 251.427 84.6367 251.123 84.924C250.819 85.2113 250.649 85.6008 250.648 86.0071V99.1297C250.649 99.3306 250.691 99.5294 250.772 99.7149C250.854 99.9003 250.973 100.069 251.124 100.211C251.274 100.352 251.453 100.465 251.649 100.541C251.846 100.617 252.056 100.656 252.268 100.656H266.139C266.568 100.656 266.979 100.496 267.283 100.209C267.587 99.9234 267.758 99.5351 267.76 99.1297V86.0071C267.758 85.6011 267.587 85.2121 267.284 84.9251C266.98 84.638 266.569 84.4763 266.139 84.4751V84.4751Z" fill="white"/>
<path d="M266.139 106.837H252.268C251.839 106.838 251.427 106.999 251.123 107.286C250.819 107.574 250.649 107.963 250.648 108.369V121.492C250.649 121.693 250.691 121.892 250.772 122.077C250.854 122.263 250.973 122.431 251.124 122.573C251.274 122.715 251.453 122.827 251.649 122.903C251.846 122.98 252.056 123.019 252.268 123.018H266.139C266.568 123.018 266.979 122.858 267.283 122.572C267.587 122.286 267.758 121.897 267.76 121.492V108.369C267.758 107.963 267.587 107.574 267.284 107.287C266.98 107 266.569 106.839 266.139 106.837Z" fill="#E6E6E6"/>
<path d="M266.139 129.2H252.268C251.839 129.2 251.427 129.361 251.123 129.649C250.819 129.936 250.649 130.326 250.648 130.732V143.849C250.648 144.05 250.69 144.249 250.771 144.435C250.852 144.621 250.971 144.79 251.122 144.933C251.273 145.075 251.451 145.188 251.648 145.265C251.845 145.342 252.056 145.381 252.268 145.381H266.139C266.569 145.38 266.981 145.219 267.285 144.932C267.589 144.644 267.759 144.255 267.76 143.849V130.732C267.758 130.326 267.587 129.937 267.284 129.65C266.98 129.363 266.569 129.201 266.139 129.2V129.2Z" fill="#E6E6E6"/>
<path d="M267.735 152.823C267.666 152.47 267.468 152.151 267.177 151.92C266.886 151.69 266.519 151.563 266.139 151.562H252.269C251.839 151.562 251.427 151.723 251.123 152.011C250.819 152.298 250.649 152.687 250.648 153.094V166.21C250.648 166.412 250.69 166.611 250.771 166.797C250.852 166.983 250.971 167.152 251.122 167.295C251.272 167.437 251.451 167.55 251.648 167.627C251.845 167.703 252.056 167.743 252.269 167.742H266.139C266.569 167.742 266.981 167.581 267.285 167.294C267.589 167.006 267.759 166.617 267.76 166.21V153.094C267.761 153.003 267.753 152.912 267.735 152.823V152.823Z" fill="#E6E6E6"/>
<path d="M266.769 174.042C266.569 173.964 266.355 173.924 266.139 173.924H252.268C252.056 173.923 251.845 173.963 251.648 174.04C251.451 174.116 251.272 174.229 251.122 174.372C250.971 174.514 250.852 174.683 250.771 174.869C250.69 175.055 250.648 175.255 250.648 175.456V188.573C250.647 188.774 250.689 188.974 250.77 189.16C250.851 189.346 250.97 189.516 251.121 189.658C251.271 189.801 251.45 189.913 251.647 189.99C251.844 190.067 252.055 190.106 252.268 190.105H266.139C266.569 190.105 266.981 189.943 267.285 189.656C267.589 189.369 267.759 188.979 267.76 188.573V175.456C267.759 175.154 267.665 174.86 267.489 174.608C267.312 174.357 267.062 174.16 266.769 174.042Z" fill="#E6E6E6"/>
<path d="M295.277 84.4751H281.406C280.977 84.4753 280.565 84.6367 280.261 84.924C279.957 85.2113 279.786 85.6008 279.786 86.0071V99.1297C279.786 99.3306 279.828 99.5294 279.91 99.7149C279.992 99.9003 280.111 100.069 280.261 100.211C280.412 100.352 280.591 100.465 280.787 100.541C280.983 100.617 281.194 100.656 281.406 100.656H295.277C295.706 100.656 296.117 100.496 296.421 100.209C296.725 99.9234 296.896 99.5351 296.897 99.1297V86.0071C296.896 85.6011 296.725 85.2121 296.421 84.9251C296.118 84.638 295.706 84.4763 295.277 84.4751V84.4751Z" fill="#E6E6E6"/>
<path d="M295.277 106.837H281.406C280.977 106.838 280.565 106.999 280.261 107.286C279.957 107.574 279.786 107.963 279.786 108.369V121.492C279.786 121.693 279.828 121.892 279.91 122.077C279.992 122.263 280.111 122.431 280.261 122.573C280.412 122.715 280.591 122.827 280.787 122.903C280.983 122.98 281.194 123.019 281.406 123.018H295.277C295.706 123.018 296.117 122.858 296.421 122.572C296.725 122.286 296.896 121.897 296.897 121.492V108.369C296.896 107.963 296.725 107.574 296.421 107.287C296.118 107 295.707 106.839 295.277 106.837Z" fill="#B45309"/>
<path d="M295.277 129.2H281.406C280.977 129.2 280.565 129.361 280.261 129.649C279.957 129.936 279.786 130.326 279.786 130.732V143.849C279.786 144.05 279.827 144.249 279.909 144.435C279.99 144.621 280.109 144.79 280.26 144.933C280.41 145.075 280.589 145.188 280.786 145.265C280.982 145.342 281.193 145.381 281.406 145.381H295.277C295.707 145.38 296.119 145.219 296.423 144.932C296.726 144.644 296.897 144.255 296.897 143.849V130.732C296.896 130.326 296.725 129.937 296.421 129.65C296.118 129.363 295.707 129.201 295.277 129.2V129.2Z" fill="#B45309"/>
<path d="M295.277 151.562H281.406C281.067 151.562 280.736 151.663 280.46 151.852C280.185 152.04 279.98 152.305 279.873 152.61C279.816 152.766 279.786 152.929 279.786 153.094V166.21C279.786 166.412 279.827 166.611 279.909 166.797C279.99 166.983 280.109 167.152 280.26 167.295C280.41 167.437 280.589 167.55 280.786 167.627C280.982 167.703 281.193 167.743 281.406 167.742H295.277C295.707 167.742 296.119 167.581 296.423 167.294C296.726 167.006 296.897 166.617 296.897 166.21V153.094C296.896 152.688 296.725 152.299 296.421 152.012C296.118 151.725 295.706 151.563 295.277 151.562V151.562Z" fill="#B45309"/>
<path d="M295.277 173.924H281.406C281.193 173.923 280.982 173.963 280.786 174.04C280.589 174.116 280.41 174.229 280.26 174.372C280.109 174.514 279.99 174.683 279.909 174.869C279.827 175.055 279.786 175.255 279.786 175.456V188.573C279.786 188.774 279.827 188.973 279.909 189.159C279.99 189.346 280.109 189.515 280.26 189.657C280.41 189.799 280.589 189.912 280.786 189.989C280.982 190.066 281.193 190.105 281.406 190.105H295.277C295.707 190.105 296.119 189.943 296.423 189.656C296.726 189.369 296.897 188.979 296.897 188.573V175.456C296.897 175.05 296.726 174.66 296.423 174.373C296.119 174.085 295.707 173.924 295.277 173.924V173.924Z" fill="#E6E6E6"/>
<path d="M324.415 84.4751H310.544C310.114 84.4753 309.702 84.6367 309.399 84.924C309.095 85.2113 308.924 85.6008 308.924 86.0071V99.1297C308.924 99.3306 308.966 99.5294 309.048 99.7149C309.129 99.9003 309.249 100.069 309.399 100.211C309.55 100.352 309.728 100.465 309.925 100.541C310.121 100.617 310.331 100.656 310.544 100.656H324.415C324.844 100.656 325.255 100.496 325.559 100.209C325.862 99.9234 326.034 99.5351 326.035 99.1297V86.0071C326.034 85.6011 325.863 85.2121 325.559 84.9251C325.256 84.638 324.844 84.4763 324.415 84.4751V84.4751Z" fill="#B45309"/>
<path d="M324.415 106.837H310.544C310.114 106.838 309.702 106.999 309.399 107.286C309.095 107.574 308.924 107.963 308.924 108.369V121.492C308.924 121.693 308.966 121.892 309.048 122.077C309.129 122.263 309.249 122.431 309.399 122.573C309.55 122.715 309.728 122.827 309.925 122.903C310.121 122.98 310.331 123.019 310.544 123.018H324.415C324.844 123.018 325.255 122.858 325.559 122.572C325.862 122.286 326.034 121.897 326.035 121.492V108.369C326.034 107.963 325.863 107.574 325.559 107.287C325.256 107 324.844 106.839 324.415 106.837Z" fill="#B45309"/>
<path d="M324.415 129.2H310.544C310.114 129.2 309.702 129.361 309.399 129.649C309.095 129.936 308.924 130.326 308.924 130.732V143.849C308.923 144.05 308.965 144.249 309.046 144.435C309.128 144.621 309.247 144.79 309.397 144.933C309.548 145.075 309.727 145.188 309.923 145.265C310.12 145.342 310.331 145.381 310.544 145.381H324.415C324.845 145.38 325.256 145.219 325.56 144.932C325.864 144.644 326.035 144.255 326.035 143.849V130.732C326.034 130.326 325.863 129.937 325.559 129.65C325.256 129.363 324.844 129.201 324.415 129.2V129.2Z" fill="#E6E6E6"/>
<path d="M324.415 151.562H310.544C310.114 151.562 309.702 151.723 309.399 152.011C309.095 152.298 308.924 152.687 308.924 153.094V166.21C308.923 166.412 308.965 166.611 309.046 166.797C309.128 166.983 309.247 167.152 309.397 167.295C309.548 167.437 309.727 167.55 309.923 167.627C310.12 167.703 310.331 167.743 310.544 167.742H324.415C324.845 167.742 325.257 167.581 325.56 167.294C325.864 167.006 326.035 166.617 326.035 166.21V153.094C326.034 152.688 325.863 152.299 325.559 152.012C325.256 151.725 324.844 151.563 324.415 151.562V151.562Z" fill="#B45309"/>
<path d="M324.415 173.924H310.544C310.331 173.923 310.12 173.963 309.923 174.04C309.727 174.116 309.548 174.229 309.397 174.372C309.247 174.514 309.128 174.683 309.046 174.869C308.965 175.055 308.923 175.255 308.924 175.456V188.573C308.923 188.774 308.965 188.973 309.046 189.159C309.128 189.346 309.247 189.515 309.397 189.657C309.548 189.799 309.727 189.912 309.923 189.989C310.12 190.066 310.331 190.105 310.544 190.105H324.415C324.845 190.105 325.257 189.943 325.56 189.656C325.864 189.369 326.035 188.979 326.035 188.573V175.456C326.035 175.05 325.864 174.66 325.56 174.373C325.257 174.085 324.845 173.924 324.415 173.924V173.924Z" fill="#B45309"/>
<path d="M353.554 84.4751H339.683C339.253 84.4753 338.841 84.6367 338.537 84.924C338.233 85.2113 338.063 85.6008 338.062 86.0071V99.1297C338.063 99.3306 338.105 99.5294 338.186 99.7149C338.268 99.9004 338.387 100.069 338.538 100.211C338.688 100.352 338.867 100.465 339.063 100.541C339.26 100.617 339.47 100.657 339.683 100.656H353.554C353.982 100.656 354.394 100.496 354.697 100.209C355.001 99.9234 355.172 99.5351 355.174 99.1297V86.0071C355.173 85.6011 355.001 85.2121 354.698 84.9251C354.394 84.638 353.983 84.4763 353.554 84.4751V84.4751Z" fill="#B45309"/>
<path d="M353.554 106.837H339.683C339.253 106.838 338.841 106.999 338.537 107.286C338.233 107.574 338.063 107.963 338.062 108.369V121.492C338.063 121.693 338.105 121.892 338.186 122.077C338.268 122.263 338.387 122.431 338.538 122.573C338.688 122.715 338.867 122.827 339.063 122.903C339.26 122.98 339.47 123.019 339.683 123.018H353.554C353.982 123.018 354.394 122.858 354.697 122.572C355.001 122.286 355.172 121.897 355.174 121.492V108.369C355.173 107.963 355.001 107.574 354.698 107.287C354.394 107 353.983 106.839 353.554 106.837V106.837Z" fill="white"/>
<path d="M353.554 129.2H339.683C339.253 129.2 338.841 129.361 338.537 129.649C338.233 129.936 338.063 130.326 338.063 130.732V143.849C338.062 144.05 338.104 144.249 338.185 144.435C338.266 144.621 338.386 144.79 338.536 144.933C338.687 145.075 338.865 145.188 339.062 145.265C339.259 145.342 339.47 145.381 339.683 145.381H353.554C353.983 145.38 354.395 145.219 354.699 144.932C355.003 144.644 355.174 144.255 355.174 143.849V130.732C355.173 130.326 355.001 129.937 354.698 129.65C354.394 129.363 353.983 129.201 353.554 129.2V129.2Z" fill="white"/>
<path d="M353.554 151.562H339.683C339.253 151.562 338.841 151.723 338.537 152.011C338.233 152.298 338.063 152.687 338.063 153.094V166.21C338.062 166.412 338.104 166.611 338.185 166.797C338.266 166.983 338.386 167.152 338.536 167.295C338.687 167.437 338.865 167.55 339.062 167.627C339.259 167.704 339.47 167.743 339.683 167.742H353.554C353.983 167.742 354.395 167.581 354.699 167.294C355.003 167.006 355.174 166.617 355.174 166.21V153.094C355.173 152.688 355.001 152.299 354.698 152.012C354.394 151.725 353.983 151.563 353.554 151.562V151.562Z" fill="#E6E6E6"/>
<path d="M353.554 173.924H339.683C339.47 173.923 339.259 173.963 339.062 174.04C338.865 174.116 338.687 174.229 338.536 174.372C338.386 174.514 338.266 174.683 338.185 174.869C338.104 175.055 338.062 175.255 338.063 175.456V188.573C338.062 188.774 338.104 188.973 338.185 189.159C338.266 189.346 338.386 189.515 338.536 189.657C338.687 189.799 338.865 189.912 339.062 189.989C339.259 190.066 339.47 190.105 339.683 190.105H353.554C353.983 190.105 354.395 189.943 354.699 189.656C355.003 189.369 355.174 188.979 355.174 188.573V175.456C355.174 175.05 355.003 174.66 354.699 174.373C354.395 174.085 353.983 173.924 353.554 173.924V173.924Z" fill="#B45309"/>
<path d="M382.691 84.4751H368.814C368.385 84.4765 367.975 84.6385 367.672 84.9257C367.37 85.2129 367.2 85.6017 367.2 86.0071V99.1297C367.2 99.5345 367.37 99.9226 367.673 100.209C367.976 100.495 368.386 100.656 368.814 100.656H382.691C383.12 100.656 383.531 100.496 383.835 100.209C384.139 99.9234 384.31 99.5351 384.312 99.1297V86.0071C384.31 85.6011 384.139 85.2121 383.836 84.9251C383.532 84.638 383.121 84.4763 382.691 84.4751Z" fill="white"/>
<path d="M382.691 106.837H368.814C368.385 106.839 367.975 107.001 367.672 107.288C367.37 107.575 367.2 107.964 367.2 108.369V121.492C367.2 121.897 367.37 122.285 367.673 122.571C367.976 122.857 368.386 123.018 368.814 123.018H382.691C383.12 123.018 383.531 122.858 383.835 122.572C384.139 122.286 384.31 121.897 384.312 121.492V108.369C384.31 107.963 384.139 107.574 383.836 107.287C383.532 107 383.121 106.839 382.691 106.837V106.837Z" fill="white"/>
<path d="M382.691 129.2H368.814C368.385 129.201 367.975 129.363 367.672 129.65C367.37 129.938 367.2 130.326 367.2 130.732V143.849C367.2 144.049 367.241 144.248 367.322 144.434C367.403 144.62 367.521 144.789 367.671 144.931C367.821 145.073 367.999 145.186 368.195 145.263C368.391 145.341 368.602 145.38 368.814 145.381H382.691C383.121 145.38 383.533 145.219 383.837 144.932C384.141 144.644 384.311 144.255 384.312 143.849V130.732C384.31 130.326 384.139 129.937 383.836 129.65C383.532 129.363 383.121 129.201 382.691 129.2V129.2Z" fill="white"/>
<path d="M382.691 151.562H368.814C368.385 151.563 367.975 151.725 367.672 152.012C367.37 152.299 367.2 152.688 367.2 153.094V166.21C367.2 166.411 367.241 166.61 367.322 166.796C367.403 166.982 367.521 167.151 367.671 167.293C367.821 167.435 367.999 167.548 368.195 167.625C368.391 167.702 368.602 167.742 368.814 167.742H382.691C383.121 167.742 383.533 167.581 383.837 167.294C384.141 167.006 384.311 166.617 384.312 166.21V153.094C384.31 152.688 384.139 152.299 383.836 152.012C383.532 151.725 383.121 151.563 382.691 151.562V151.562Z" fill="#B45309"/>
<path d="M382.691 173.924H368.814C368.602 173.924 368.391 173.964 368.195 174.041C367.999 174.118 367.821 174.231 367.671 174.373C367.521 174.516 367.403 174.685 367.322 174.87C367.241 175.056 367.2 175.255 367.2 175.456V188.573C367.2 188.774 367.241 188.973 367.322 189.158C367.403 189.344 367.521 189.513 367.671 189.655C367.821 189.797 367.999 189.91 368.195 189.988C368.391 190.065 368.602 190.105 368.814 190.105H382.691C383.121 190.105 383.533 189.943 383.837 189.656C384.141 189.369 384.311 188.979 384.312 188.573V175.456C384.311 175.05 384.141 174.66 383.837 174.373C383.533 174.085 383.121 173.924 382.691 173.924V173.924Z" fill="#E6E6E6"/>
<path d="M411.829 84.4751H397.952C397.523 84.4765 397.113 84.6385 396.81 84.9257C396.508 85.2129 396.338 85.6017 396.338 86.0071V99.1297C396.338 99.5345 396.508 99.9226 396.811 100.209C397.113 100.495 397.524 100.656 397.952 100.656H411.829C412.258 100.656 412.669 100.496 412.973 100.209C413.276 99.9233 413.448 99.5351 413.449 99.1297V86.0071C413.448 85.6011 413.277 85.2121 412.973 84.9251C412.67 84.6381 412.258 84.4763 411.829 84.4751V84.4751Z" fill="white"/>
<path d="M411.829 106.837H397.952C397.523 106.839 397.113 107.001 396.81 107.288C396.508 107.575 396.338 107.964 396.338 108.369V121.492C396.338 121.897 396.508 122.285 396.811 122.571C397.113 122.857 397.524 123.018 397.952 123.018H411.829C412.258 123.018 412.669 122.858 412.973 122.572C413.276 122.286 413.448 121.897 413.449 121.492V108.369C413.448 107.963 413.277 107.574 412.973 107.287C412.67 107 412.258 106.839 411.829 106.837V106.837Z" fill="white"/>
<path d="M411.829 129.2H397.952C397.523 129.201 397.113 129.363 396.81 129.65C396.508 129.938 396.338 130.326 396.338 130.732V143.849C396.337 144.049 396.379 144.248 396.459 144.434C396.54 144.62 396.659 144.789 396.809 144.931C396.959 145.073 397.137 145.186 397.333 145.263C397.529 145.341 397.739 145.38 397.952 145.381H411.829C412.259 145.38 412.671 145.219 412.974 144.932C413.278 144.644 413.449 144.255 413.449 143.849V130.732C413.448 130.326 413.277 129.937 412.973 129.65C412.67 129.363 412.258 129.201 411.829 129.2V129.2Z" fill="#B45309"/>
<path d="M411.829 151.562H397.952C397.523 151.563 397.113 151.725 396.81 152.012C396.508 152.299 396.338 152.688 396.338 153.094V166.21C396.337 166.411 396.379 166.61 396.459 166.796C396.54 166.982 396.659 167.151 396.809 167.293C396.959 167.435 397.137 167.548 397.333 167.625C397.529 167.702 397.739 167.742 397.952 167.742H411.829C412.259 167.742 412.671 167.581 412.974 167.294C413.278 167.006 413.449 166.617 413.449 166.21V153.094C413.448 152.688 413.277 152.299 412.973 152.012C412.67 151.725 412.258 151.563 411.829 151.562V151.562Z" fill="#E6E6E6"/>
<path d="M411.829 173.924H397.952C397.739 173.924 397.529 173.964 397.333 174.041C397.137 174.118 396.959 174.231 396.809 174.373C396.659 174.516 396.54 174.685 396.459 174.87C396.379 175.056 396.337 175.255 396.338 175.456V188.573C396.337 188.774 396.379 188.973 396.459 189.158C396.54 189.344 396.659 189.513 396.809 189.655C396.959 189.797 397.137 189.91 397.333 189.988C397.529 190.065 397.739 190.105 397.952 190.105H411.829C412.259 190.105 412.671 189.943 412.974 189.656C413.278 189.369 413.449 188.979 413.449 188.573V175.456C413.449 175.05 413.278 174.66 412.974 174.373C412.671 174.085 412.259 173.924 411.829 173.924Z" fill="white"/>
<path d="M440.966 84.4751H427.089C426.66 84.4765 426.249 84.6385 425.947 84.9257C425.644 85.2129 425.474 85.6017 425.475 86.0071V99.1297C425.475 99.5345 425.645 99.9226 425.947 100.209C426.25 100.495 426.661 100.656 427.089 100.656H440.966C441.394 100.656 441.806 100.496 442.109 100.209C442.413 99.9233 442.584 99.5351 442.586 99.1297V86.0071C442.585 85.6011 442.414 85.2121 442.11 84.9251C441.806 84.6381 441.395 84.4763 440.966 84.4751V84.4751Z" fill="#B45309"/>
<path d="M440.966 106.837H427.089C426.66 106.839 426.249 107.001 425.947 107.288C425.644 107.575 425.474 107.964 425.475 108.369V121.492C425.475 121.897 425.645 122.285 425.947 122.571C426.25 122.857 426.661 123.018 427.089 123.018H440.966C441.394 123.018 441.806 122.858 442.109 122.572C442.413 122.286 442.584 121.897 442.586 121.492V108.369C442.585 107.963 442.414 107.574 442.11 107.287C441.806 107 441.395 106.839 440.966 106.837Z" fill="#B45309"/>
<path d="M440.966 129.2H427.089C426.66 129.201 426.249 129.363 425.947 129.65C425.644 129.938 425.474 130.326 425.475 130.732V143.849C425.474 144.049 425.515 144.248 425.596 144.434C425.677 144.62 425.796 144.789 425.946 144.931C426.096 145.073 426.274 145.186 426.47 145.263C426.666 145.341 426.876 145.38 427.089 145.381H440.966C441.395 145.38 441.807 145.219 442.111 144.932C442.415 144.644 442.586 144.255 442.586 143.849V130.732C442.585 130.326 442.414 129.937 442.11 129.65C441.806 129.363 441.395 129.201 440.966 129.2V129.2Z" fill="#E6E6E6"/>
<path d="M440.966 151.562H427.089C426.66 151.563 426.249 151.725 425.947 152.012C425.644 152.299 425.474 152.688 425.475 153.094V166.21C425.474 166.411 425.515 166.61 425.596 166.796C425.677 166.982 425.796 167.151 425.946 167.293C426.096 167.435 426.274 167.548 426.47 167.625C426.666 167.702 426.876 167.742 427.089 167.742H440.966C441.395 167.742 441.807 167.581 442.111 167.294C442.415 167.006 442.586 166.617 442.586 166.21V153.094C442.585 152.688 442.414 152.299 442.11 152.012C441.806 151.725 441.395 151.563 440.966 151.562V151.562Z" fill="white"/>
<path d="M440.966 173.924H427.089C426.876 173.924 426.666 173.964 426.47 174.041C426.274 174.118 426.096 174.231 425.946 174.373C425.796 174.516 425.677 174.685 425.596 174.87C425.515 175.056 425.474 175.255 425.475 175.456V188.573C425.474 188.774 425.515 188.973 425.596 189.158C425.677 189.344 425.796 189.513 425.946 189.655C426.096 189.797 426.274 189.91 426.47 189.988C426.666 190.065 426.876 190.105 427.089 190.105H440.966C441.395 190.105 441.807 189.943 442.111 189.656C442.415 189.369 442.586 188.979 442.586 188.573V175.456C442.586 175.05 442.415 174.66 442.111 174.373C441.807 174.085 441.395 173.924 440.966 173.924Z" fill="#B45309"/>
<path d="M470.103 84.4751H456.226C455.798 84.4765 455.387 84.6385 455.084 84.9257C454.782 85.2129 454.612 85.6017 454.612 86.0071V99.1297C454.612 99.5345 454.782 99.9226 455.085 100.209C455.388 100.495 455.798 100.656 456.226 100.656H470.103C470.532 100.656 470.943 100.496 471.247 100.209C471.551 99.9233 471.722 99.5351 471.724 99.1297V86.0071C471.722 85.6011 471.551 85.2121 471.248 84.9251C470.944 84.6381 470.533 84.4763 470.103 84.4751Z" fill="#B45309"/>
<path d="M470.103 106.837H456.226C455.798 106.839 455.387 107.001 455.084 107.288C454.782 107.575 454.612 107.964 454.612 108.369V121.492C454.612 121.897 454.782 122.285 455.085 122.571C455.388 122.857 455.798 123.018 456.226 123.018H470.103C470.532 123.018 470.943 122.858 471.247 122.572C471.551 122.286 471.722 121.897 471.724 121.492V108.369C471.722 107.964 471.551 107.574 471.248 107.287C470.944 107 470.533 106.839 470.103 106.837V106.837Z" fill="#B45309"/>
<path d="M470.103 129.2H456.226C455.798 129.201 455.387 129.363 455.084 129.65C454.782 129.938 454.612 130.326 454.612 130.732V143.849C454.612 144.049 454.653 144.248 454.734 144.434C454.815 144.62 454.933 144.789 455.083 144.931C455.233 145.073 455.411 145.186 455.607 145.263C455.804 145.341 456.014 145.38 456.226 145.381H470.103C470.533 145.38 470.945 145.219 471.249 144.932C471.553 144.644 471.723 144.255 471.724 143.849V130.732C471.722 130.326 471.551 129.937 471.248 129.65C470.944 129.363 470.533 129.201 470.103 129.2Z" fill="#E6E6E6"/>
<path d="M470.103 151.562H456.226C455.798 151.563 455.387 151.725 455.084 152.012C454.782 152.299 454.612 152.688 454.612 153.094V166.21C454.612 166.411 454.653 166.61 454.734 166.796C454.815 166.982 454.933 167.151 455.083 167.293C455.233 167.435 455.411 167.548 455.607 167.625C455.804 167.702 456.014 167.742 456.226 167.742H470.103C470.533 167.742 470.945 167.581 471.249 167.294C471.553 167.006 471.723 166.617 471.724 166.21V153.094C471.722 152.688 471.551 152.299 471.248 152.012C470.944 151.725 470.533 151.563 470.103 151.562V151.562Z" fill="#B45309"/>
<path d="M470.103 173.924H456.226C456.014 173.924 455.804 173.964 455.607 174.041C455.411 174.118 455.233 174.231 455.083 174.373C454.933 174.516 454.815 174.685 454.734 174.87C454.653 175.056 454.612 175.255 454.612 175.456V188.573C454.612 188.774 454.653 188.973 454.734 189.158C454.815 189.344 454.933 189.513 455.083 189.655C455.233 189.797 455.411 189.91 455.607 189.988C455.804 190.065 456.014 190.105 456.226 190.105H470.103C470.533 190.105 470.945 189.943 471.249 189.656C471.553 189.369 471.723 188.979 471.724 188.573V175.456C471.723 175.05 471.553 174.66 471.249 174.373C470.945 174.085 470.533 173.924 470.103 173.924V173.924Z" fill="#B45309"/>
<path d="M499.241 84.4751H485.364C484.935 84.4765 484.525 84.6385 484.222 84.9257C483.92 85.2129 483.75 85.6017 483.75 86.0071V99.1297C483.75 99.5345 483.92 99.9226 484.223 100.209C484.525 100.495 484.936 100.656 485.364 100.656H499.241C499.67 100.656 500.081 100.496 500.385 100.209C500.688 99.9233 500.86 99.5351 500.861 99.1297V86.0071C500.86 85.6011 500.689 85.2121 500.385 84.9251C500.082 84.6381 499.67 84.4763 499.241 84.4751V84.4751Z" fill="#E6E6E6"/>
<path d="M499.241 106.837H485.364C484.935 106.839 484.525 107.001 484.222 107.288C483.92 107.575 483.75 107.964 483.75 108.369V121.492C483.75 121.897 483.92 122.285 484.223 122.571C484.525 122.857 484.936 123.018 485.364 123.018H499.241C499.67 123.018 500.081 122.858 500.385 122.572C500.688 122.286 500.86 121.897 500.861 121.492V108.369C500.86 107.964 500.689 107.574 500.385 107.287C500.082 107 499.67 106.839 499.241 106.837V106.837Z" fill="#B45309"/>
<path d="M499.241 129.2H485.364C484.935 129.201 484.525 129.363 484.222 129.65C483.92 129.938 483.75 130.326 483.75 130.732V143.849C483.749 144.049 483.791 144.248 483.872 144.434C483.952 144.62 484.071 144.789 484.221 144.931C484.371 145.073 484.549 145.186 484.745 145.263C484.941 145.341 485.151 145.38 485.364 145.381H499.241C499.671 145.38 500.083 145.219 500.386 144.932C500.69 144.644 500.861 144.255 500.861 143.849V130.732C500.86 130.326 500.689 129.937 500.385 129.65C500.082 129.363 499.67 129.201 499.241 129.2V129.2Z" fill="#B45309"/>
<path d="M499.241 151.562H485.364C484.935 151.563 484.525 151.725 484.222 152.012C483.92 152.299 483.75 152.688 483.75 153.094V166.21C483.749 166.411 483.791 166.61 483.872 166.796C483.952 166.982 484.071 167.151 484.221 167.293C484.371 167.435 484.549 167.548 484.745 167.625C484.941 167.702 485.151 167.742 485.364 167.742H499.241C499.671 167.742 500.083 167.581 500.386 167.294C500.69 167.006 500.861 166.617 500.861 166.21V153.094C500.86 152.688 500.689 152.299 500.385 152.012C500.082 151.725 499.67 151.563 499.241 151.562V151.562Z" fill="#B45309"/>
<path d="M499.241 173.924H485.364C485.151 173.924 484.941 173.964 484.745 174.041C484.549 174.118 484.371 174.231 484.221 174.373C484.071 174.516 483.952 174.685 483.872 174.87C483.791 175.056 483.749 175.255 483.75 175.456V188.573C483.749 188.774 483.791 188.973 483.872 189.158C483.952 189.344 484.071 189.513 484.221 189.655C484.371 189.797 484.549 189.91 484.745 189.988C484.941 190.065 485.151 190.105 485.364 190.105H499.241C499.671 190.105 500.083 189.943 500.386 189.656C500.69 189.369 500.861 188.979 500.861 188.573V175.456C500.861 175.05 500.69 174.66 500.386 174.373C500.083 174.085 499.671 173.924 499.241 173.924V173.924Z" fill="#E6E6E6"/>
<path d="M528.379 84.4751H514.502C514.073 84.4765 513.662 84.6385 513.36 84.9257C513.057 85.2129 512.888 85.6017 512.888 86.0071V99.1297C512.888 99.5345 513.058 99.9226 513.361 100.209C513.663 100.495 514.074 100.656 514.502 100.656H528.379C528.808 100.656 529.219 100.496 529.523 100.209C529.826 99.9233 529.998 99.5351 529.999 99.1297V86.0071C529.998 85.6011 529.827 85.2121 529.523 84.9251C529.22 84.6381 528.808 84.4763 528.379 84.4751V84.4751Z" fill="#E6E6E6"/>
<path d="M528.379 106.837H514.502C514.073 106.839 513.662 107.001 513.36 107.288C513.057 107.575 512.888 107.964 512.888 108.369V121.492C512.888 121.897 513.058 122.285 513.361 122.571C513.663 122.857 514.074 123.018 514.502 123.018H528.379C528.808 123.018 529.219 122.858 529.523 122.572C529.826 122.286 529.998 121.897 529.999 121.492V108.369C529.998 107.964 529.827 107.574 529.523 107.287C529.22 107 528.808 106.839 528.379 106.837V106.837Z" fill="#E6E6E6"/>
<path d="M528.379 129.2H514.502C514.073 129.201 513.662 129.363 513.36 129.65C513.057 129.938 512.888 130.326 512.888 130.732V143.849C512.887 144.049 512.928 144.248 513.009 144.434C513.09 144.62 513.209 144.789 513.359 144.931C513.509 145.073 513.687 145.186 513.883 145.263C514.079 145.341 514.289 145.38 514.502 145.381H528.379C528.809 145.38 529.22 145.219 529.524 144.932C529.828 144.644 529.999 144.255 529.999 143.849V130.732C529.998 130.326 529.827 129.937 529.523 129.65C529.22 129.363 528.808 129.201 528.379 129.2V129.2Z" fill="#B45309"/>
<path d="M528.379 151.562H514.502C514.073 151.563 513.662 151.725 513.36 152.012C513.057 152.299 512.888 152.688 512.888 153.094V166.21C512.887 166.411 512.928 166.61 513.009 166.796C513.09 166.982 513.209 167.151 513.359 167.293C513.509 167.435 513.687 167.548 513.883 167.625C514.079 167.702 514.289 167.742 514.502 167.742H528.379C528.809 167.742 529.22 167.581 529.524 167.294C529.828 167.006 529.999 166.617 529.999 166.21V153.094C529.998 152.688 529.827 152.299 529.523 152.012C529.22 151.725 528.808 151.563 528.379 151.562V151.562Z" fill="#E6E6E6"/>
<path d="M528.379 173.924H514.502C514.289 173.924 514.079 173.964 513.883 174.041C513.687 174.118 513.509 174.231 513.359 174.373C513.209 174.516 513.09 174.685 513.009 174.87C512.928 175.056 512.887 175.255 512.888 175.456V188.573C512.887 188.774 512.928 188.973 513.009 189.158C513.09 189.344 513.209 189.513 513.359 189.655C513.509 189.797 513.687 189.91 513.883 189.988C514.079 190.065 514.289 190.105 514.502 190.105H528.379C528.809 190.105 529.22 189.943 529.524 189.656C529.828 189.369 529.999 188.979 529.999 188.573V175.456C529.999 175.05 529.828 174.66 529.524 174.373C529.22 174.085 528.809 173.924 528.379 173.924V173.924Z" fill="#E6E6E6"/>
<path d="M209.433 367.317H209.047L209.377 367.276L209.433 367.317Z" fill="#2F2E41"/>
<path d="M176.233 122.78C199.746 122.78 218.807 104.755 218.807 82.5211C218.807 60.2867 199.746 42.2622 176.233 42.2622C152.72 42.2622 133.659 60.2867 133.659 82.5211C133.659 104.755 152.72 122.78 176.233 122.78Z" fill="#FFB6B6"/>
<path d="M213.516 53.0035C213.516 53.0035 224.651 32.8741 200.153 31.0441C200.153 31.0441 179.269 13.1295 157.982 27.769C157.982 27.769 146.371 27.769 140.022 40.1938C140.022 40.1938 130.89 36.9187 128.883 45.6837C128.883 45.6837 122.201 63.9832 128.883 80.4527C135.565 96.9223 137.785 98.7522 137.785 98.7522C137.785 98.7522 126.804 64.2229 153.531 62.3929C180.258 60.5629 210.166 44.7687 212.393 64.8981C214.621 85.0275 217.972 89.9872 217.972 89.9872C217.972 89.9872 239.128 61.2383 213.516 53.0035Z" fill="#2F2E41"/>
<path d="M286.36 181.737L286.223 182.421L284.684 190.105L274.047 243.255L273.418 246.384L272.097 253.002L270.29 262.029L266.283 282.034L265.137 287.768L264.707 289.918L264.557 290.673L263.367 296.606L263.005 298.398L260.102 318.745L257.565 336.475L266.053 344.501L260.993 349.285L257.671 367.275L257.678 367.317H122.127C116.643 363.958 111.239 360.495 105.913 356.928L107.029 349.032C107.029 349.032 110.867 334.931 109.253 333.246C107.645 331.561 104.118 328.55 104.118 328.55L108.561 318.745L109.178 317.383L108.144 297.095L108.119 296.606L107.776 289.918L107.733 289.058L107.664 287.768L106.349 262.029L106.324 261.605L105.926 253.803L105.552 246.384L105.39 243.255L103.788 211.948L102.704 190.688L101.757 172.18L105.564 170.96L146.286 157.873L163.154 137.137L198.262 137.384L215.448 137.508L244.124 162.657L250.649 165.604L250.699 165.627L255.378 167.743L267.243 173.099L279.787 178.768L286.223 181.673L286.36 181.737Z" fill="#CACACA"/>
<path d="M167.691 306.919C165.118 307.862 162.358 308.259 159.605 308.084C156.853 307.909 154.174 307.165 151.758 305.905C149.342 304.645 147.248 302.899 145.623 300.791C143.998 298.682 142.881 296.263 142.352 293.702L75.9512 284.794L99.0338 260.103L158.55 272.348C163.158 271.792 167.821 272.854 171.656 275.332C175.492 277.81 178.232 281.533 179.359 285.794C180.486 290.056 179.92 294.56 177.77 298.453C175.619 302.347 172.033 305.359 167.691 306.919V306.919Z" fill="#FFB6B6"/>
<path d="M138.085 262.028C136.855 260.554 135.114 259.538 133.169 259.159L105.926 253.802L103.128 253.254C101.502 252.934 99.9657 252.292 98.6201 251.371C97.2746 250.45 96.15 249.27 95.3197 247.91C94.4585 246.482 93.9375 244.893 93.793 243.255C93.6632 241.765 93.8518 240.266 94.3476 238.847L103.788 211.948L109.914 194.494C110.656 192.389 111.094 190.199 111.216 187.983C111.557 181.851 109.551 175.807 105.564 170.96C102.059 166.699 97.1978 163.617 91.6983 162.17C86.1989 160.722 80.3529 160.986 75.0242 162.922C74.8684 162.975 74.7064 163.034 74.5506 163.093C70.7291 164.536 67.3148 166.8 64.5776 169.705C61.8404 172.61 59.8553 176.078 58.7791 179.834L52.124 202.726L38.3963 249.919C37.0221 254.648 36.7445 259.601 37.5825 264.44C38.4204 269.279 40.3542 273.89 43.2514 277.957C46.1485 282.024 49.9408 285.451 54.3685 288.004C58.7962 290.556 63.7548 292.174 68.905 292.746L108.144 297.095L126.302 299.11C128.402 299.349 130.519 298.831 132.233 297.659C133.947 296.487 135.131 294.748 135.549 292.787C135.579 292.681 135.602 292.573 135.618 292.463L136.054 289.918L139.749 268.481L139.787 268.263C139.979 267.169 139.927 266.049 139.634 264.975C139.341 263.902 138.814 262.898 138.085 262.028Z" fill="#CACACA"/>
<path d="M209.985 307.606C212.673 308.196 215.464 308.222 218.164 307.681C220.863 307.141 223.404 306.047 225.607 304.477C227.811 302.908 229.624 300.9 230.919 298.596C232.213 296.292 232.958 293.748 233.1 291.142L297.509 273.469L270.975 252.103L213.879 272.162C209.234 272.226 204.776 273.899 201.349 276.864C197.921 279.829 195.763 283.879 195.283 288.248C194.803 292.617 196.035 297.001 198.744 300.569C201.454 304.137 205.454 306.641 209.985 307.606V307.606Z" fill="#FFB6B6"/>
<path d="M329.487 233.933L298.854 167.265C296.348 161.792 291.873 157.335 286.223 154.685C284.476 153.871 282.642 153.239 280.752 152.799C280.459 152.728 280.166 152.663 279.873 152.61C275.865 151.783 271.708 151.856 267.735 152.823C264.103 153.705 260.708 155.301 257.773 157.507C254.837 159.714 252.427 162.48 250.698 165.627C250.679 165.653 250.662 165.681 250.648 165.709C248.717 169.242 247.69 173.154 247.65 177.13C247.61 181.106 248.558 185.035 250.418 188.602L250.798 189.321L272.445 230.433C273.185 231.839 273.601 233.377 273.668 234.945C273.734 236.514 273.449 238.079 272.831 239.536C272.213 240.993 271.277 242.31 270.083 243.401C268.889 244.492 267.464 245.332 265.903 245.866L264.382 246.384L237.039 255.724C234.987 256.416 233.3 257.834 232.331 259.68C231.363 261.525 231.19 263.654 231.848 265.617L231.917 265.824L239.581 289.017C239.619 289.123 239.656 289.229 239.7 289.335C239.767 289.535 239.85 289.73 239.949 289.918C240.764 291.646 242.203 293.042 244.009 293.855C245.815 294.668 247.869 294.846 249.801 294.355L264.557 290.672L267.566 289.918L305.671 280.402C310.685 279.149 315.353 276.886 319.356 273.769C323.359 270.651 326.603 266.753 328.865 262.34C331.126 257.927 332.353 253.104 332.461 248.201C332.568 243.298 331.554 238.431 329.487 233.933L329.487 233.933Z" fill="#CACACA"/>
<path d="M27.9775 289.918C36.8076 300.102 46.3306 309.732 56.486 318.744H338.124C340.838 318.748 343.439 319.77 345.357 321.585C347.275 323.4 348.354 325.86 348.356 328.426L348.761 395.913C366.087 388.385 382.313 378.774 397.035 367.316C401.123 364.14 405.084 360.827 408.919 357.376C411.43 355.125 413.881 352.819 416.272 350.458C434.195 332.801 448.709 312.311 459.156 289.918H27.9775Z" fill="#3F3D56"/>
<path d="M416.271 350.458C413.884 352.821 411.433 355.127 408.918 357.376H348.966V350.458H416.271Z" fill="white"/>
<path d="M285.8 129.199C285.504 128.683 285.065 128.251 284.531 127.95C283.997 127.649 283.387 127.491 282.765 127.491H78.4766C77.5607 127.493 76.683 127.838 76.036 128.451C75.3889 129.064 75.0252 129.895 75.0244 130.761V246.384H286.224V130.761C286.227 130.215 286.081 129.677 285.8 129.199V129.199Z" fill="#3F3D56"/>
<path d="M74.8389 243.254V257.522C74.8389 258.113 74.9621 258.699 75.2014 259.246C75.4408 259.792 75.7916 260.289 76.2339 260.707C76.6762 261.125 77.2013 261.457 77.7792 261.683C78.3571 261.91 78.9765 262.026 79.602 262.026H157.554V290.185H156.519C156.437 290.185 156.357 290.2 156.282 290.229C156.207 290.259 156.139 290.302 156.081 290.356C156.024 290.41 155.978 290.475 155.947 290.546C155.916 290.617 155.9 290.693 155.9 290.77V292.728C155.9 292.805 155.916 292.881 155.947 292.952C155.978 293.023 156.024 293.088 156.081 293.142C156.138 293.196 156.207 293.239 156.282 293.269C156.357 293.298 156.437 293.313 156.519 293.313H204.91C204.992 293.313 205.072 293.298 205.147 293.269C205.222 293.239 205.29 293.196 205.348 293.142C205.405 293.088 205.451 293.023 205.482 292.952C205.513 292.881 205.529 292.805 205.529 292.728V290.77C205.529 290.693 205.513 290.617 205.482 290.546C205.451 290.475 205.405 290.41 205.348 290.356C205.29 290.302 205.222 290.259 205.147 290.229C205.072 290.2 204.992 290.185 204.91 290.185H203.875V262.026H281.827C282.452 262.026 283.072 261.91 283.65 261.683C284.228 261.457 284.753 261.125 285.195 260.707C285.637 260.289 285.988 259.792 286.227 259.246C286.467 258.699 286.59 258.113 286.59 257.522V243.254H74.8389Z" fill="#3F3D56"/>
<path d="M178.157 202.303C188.931 202.303 197.665 194.043 197.665 183.855C197.665 173.667 188.931 165.408 178.157 165.408C167.383 165.408 158.648 173.667 158.648 183.855C158.648 194.043 167.383 202.303 178.157 202.303Z" fill="#B45309"/>
<path d="M227.861 80.3207H224.746C224.746 58.0469 201.434 43.4511 177.917 43.4393C174.497 43.4299 171.083 43.7437 167.729 44.3763C163.953 45.0893 160.033 45.9437 156.182 47.0574C140.996 51.4591 126.914 59.9679 126.914 80.3207C126.91 84.2733 127.442 88.2101 128.496 92.035L125.48 92.7775C124.362 88.7098 123.796 84.5237 123.798 80.3207C123.798 62.537 131.519 50.3218 144.854 43.0386C151.864 39.2085 160.42 36.7395 170.221 35.5375C174.3 35.0243 178.424 34.9059 182.528 35.1839C209.572 37.0224 227.861 56.6327 227.861 80.3207Z" fill="#B45309"/>
<path d="M233.052 81.953L231.824 73.3735C231.521 71.2068 230.417 69.2113 228.708 67.7402C227.611 66.7812 226.298 66.0707 224.867 65.6623C223.437 65.254 221.927 65.1586 220.452 65.3832L218.501 65.6366C217.968 65.703 217.453 65.869 216.988 66.1249C216.523 66.3809 216.116 66.7216 215.791 67.1274C215.463 67.5319 215.223 67.9937 215.085 68.4862C214.947 68.9788 214.914 69.4923 214.987 69.9971L217.822 89.7606C217.939 90.5662 218.321 91.3165 218.913 91.9056C219.506 92.4946 220.28 92.8924 221.125 93.0428C221.375 93.0902 221.63 93.1139 221.885 93.1135C222.068 93.1135 222.252 93.1016 222.433 93.0781L224.614 92.8012C225.944 92.6343 227.224 92.2121 228.374 91.5606C229.525 90.909 230.523 90.0418 231.307 89.0123C231.475 88.7884 231.637 88.5586 231.787 88.3228C232.954 86.3948 233.4 84.1504 233.052 81.953Z" fill="#B45309"/>
<path d="M217.243 65.9961C216.671 66.2589 216.173 66.6467 215.791 67.1275C215.463 67.5319 215.223 67.9937 215.085 68.4863C214.947 68.9788 214.914 69.4923 214.987 69.9971L217.822 89.7607C217.939 90.5662 218.321 91.3166 218.913 91.9056C219.506 92.4946 220.28 92.8925 221.125 93.0428L217.243 65.9961Z" fill="white"/>
<path d="M233.051 81.953L231.824 73.3735C231.521 71.2068 230.417 69.2113 228.708 67.7402L231.531 87.4036C231.573 87.7193 231.659 88.0283 231.786 88.3228C232.954 86.3948 233.4 84.1504 233.051 81.953V81.953Z" fill="#3F3D56"/>
<path d="M223.35 88.1348C224.203 88.0255 224.631 86.1068 224.308 83.8495C223.984 81.5921 223.03 79.8508 222.177 79.9602C221.325 80.0695 220.896 81.9882 221.22 84.2455C221.544 86.5029 222.498 88.2442 223.35 88.1348Z" fill="#3F3D56"/>
<path d="M221.481 77.5279C222.334 77.4185 222.762 75.4999 222.438 73.2425C222.115 70.9852 221.161 69.2439 220.308 69.3532C219.456 69.4626 219.027 71.3812 219.351 73.6386C219.675 75.896 220.629 77.6373 221.481 77.5279Z" fill="#3F3D56"/>
<path d="M233.32 81.6529C234.172 81.5435 234.601 79.6249 234.277 77.3675C233.953 75.1102 233 73.3689 232.147 73.4782C231.295 73.5876 230.866 75.5062 231.19 77.7636C231.514 80.021 232.467 81.7623 233.32 81.6529Z" fill="#3F3D56"/>
<path d="M177.916 43.4393C174.495 43.4299 171.082 43.7438 167.728 44.3763C163.952 45.0893 160.032 45.9437 156.181 47.0574C150.168 46.7804 145.744 45.3073 144.853 43.0386C151.863 39.2085 160.418 36.7395 170.22 35.5375C174.299 35.0243 178.423 34.9059 182.527 35.1839C182.962 35.4248 183.337 35.7499 183.63 36.1378C183.922 36.5258 184.124 36.9678 184.222 37.4349C184.515 39.4855 182.041 41.6657 177.916 43.4393Z" fill="#3F3D56"/>
<path d="M138.135 100.768L133.337 81.906C133.166 81.2255 132.786 80.6079 132.245 80.1309C131.704 79.6539 131.026 79.3387 130.296 79.2249C130.09 79.1945 129.882 79.1788 129.673 79.1777C129.379 79.1787 129.086 79.2123 128.801 79.2779L126.944 79.7022C124.553 80.249 122.489 81.6703 121.205 83.6544C119.921 85.6385 119.522 88.0232 120.096 90.2852L122.245 98.7468C122.736 100.739 123.905 102.523 125.573 103.826C125.843 104.032 126.126 104.223 126.42 104.398C127.465 105.017 128.63 105.432 129.847 105.618C131.064 105.804 132.308 105.758 133.505 105.482L135.356 105.058C135.846 104.95 136.306 104.747 136.708 104.463C137.307 104.05 137.762 103.478 138.016 102.821C138.27 102.163 138.312 101.448 138.135 100.768Z" fill="#B45309"/>
<path d="M128.076 97.2584C128.913 97.0681 129.134 95.1183 128.57 92.9035C128.007 90.6887 126.872 89.0475 126.035 89.2379C125.199 89.4282 124.977 91.378 125.541 93.5928C126.105 95.8076 127.24 97.4488 128.076 97.2584Z" fill="#3F3D56"/>
<path d="M121.845 99.026C122.681 98.8357 122.902 96.8859 122.339 94.6711C121.775 92.4562 120.64 90.8151 119.804 91.0054C118.967 91.1958 118.746 93.1456 119.31 95.3604C119.873 97.5752 121.008 99.2164 121.845 99.026Z" fill="#3F3D56"/>
<path d="M138.441 100.697L133.643 81.8352C133.456 81.0989 133.044 80.4311 132.457 79.9154C131.871 79.3997 131.137 79.0591 130.347 78.936L136.896 104.698C137.543 104.25 138.035 103.631 138.31 102.919C138.585 102.207 138.63 101.434 138.441 100.697V100.697Z" fill="white"/>
<path d="M121.181 86.5491C121.049 86.0246 120.8 85.5326 120.452 85.1055C119.777 86.7573 119.653 88.5647 120.097 90.285L122.247 98.7467C122.737 100.739 123.906 102.523 125.574 103.826L121.181 86.5491Z" fill="#3F3D56"/>
</svg>
