<svg width="530" height="416" viewBox="0 0 530 416" fill="none" xmlns="http://www.w3.org/2000/svg">
<g clip-path="url(#clip0_2927_2104)">
<path d="M498.769 377.119C498.448 389.65 496.439 402.071 492.802 414.016C492.722 414.293 492.632 414.566 492.545 414.844H470.279C470.302 414.595 470.326 414.318 470.35 414.016C471.834 396.18 463.353 288.918 453.118 270.354C454.015 271.859 500.496 320.446 498.769 377.119Z" fill="#F0F0F0"/>
<path d="M497.099 414.016C496.913 414.293 496.72 414.571 496.521 414.844H479.816C479.943 414.608 480.09 414.331 480.26 414.016C483.019 408.812 491.187 393.251 498.769 377.12C506.913 359.784 514.391 341.791 513.762 335.279C513.957 336.747 519.595 381.522 497.099 414.016Z" fill="#F0F0F0"/>
<path d="M420.355 338.16H0V0H420.355V338.16Z" fill="white"/>
<path d="M420.355 338.16H0V0H420.355V338.16ZM6.21072 331.669H414.145V6.49034H6.21072V331.669Z" fill="#E5E5E5"/>
<path d="M110.013 254.908H78.1872C77.3254 254.907 76.4992 254.549 75.8898 253.912C75.2804 253.275 74.9376 252.412 74.9365 251.511V205.663C74.9376 204.763 75.2804 203.899 75.8898 203.263C76.4992 202.626 77.3254 202.268 78.1872 202.267H110.013C110.875 202.268 111.701 202.626 112.311 203.263C112.92 203.899 113.263 204.763 113.264 205.663V251.511C113.263 252.412 112.92 253.275 112.311 253.912C111.701 254.549 110.875 254.907 110.013 254.908V254.908Z" fill="#E6E6E6"/>
<path d="M168.051 254.908H136.225C135.364 254.907 134.537 254.549 133.928 253.912C133.318 253.275 132.976 252.412 132.975 251.511V162.177C132.976 161.277 133.318 160.413 133.928 159.777C134.537 159.14 135.364 158.782 136.225 158.781H168.051C168.913 158.782 169.739 159.14 170.349 159.777C170.958 160.413 171.301 161.277 171.302 162.177V251.511C171.301 252.412 170.958 253.275 170.349 253.912C169.739 254.549 168.913 254.907 168.051 254.908Z" fill="#E6E6E6"/>
<path d="M226.09 254.908H194.264C193.403 254.907 192.576 254.549 191.967 253.912C191.358 253.275 191.015 252.412 191.014 251.511V205.663C191.015 204.763 191.358 203.899 191.967 203.263C192.576 202.626 193.403 202.268 194.264 202.267H226.09C226.952 202.268 227.778 202.626 228.388 203.263C228.997 203.899 229.34 204.763 229.341 205.663V251.511C229.34 252.412 228.997 253.275 228.388 253.912C227.778 254.549 226.952 254.907 226.09 254.908V254.908Z" fill="#E6E6E6"/>
<path d="M284.129 254.908H252.303C251.461 254.927 250.646 254.596 250.037 253.988C249.428 253.381 249.074 252.545 249.053 251.665V144.858C249.074 143.978 249.428 143.142 250.037 142.535C250.646 141.927 251.461 141.596 252.303 141.615H284.129C284.972 141.596 285.787 141.927 286.396 142.535C287.005 143.142 287.359 143.978 287.38 144.858V251.665C287.359 252.545 287.005 253.381 286.396 253.988C285.787 254.596 284.972 254.927 284.129 254.908Z" fill="#E6E6E6"/>
<path d="M342.168 254.908H310.343C309.481 254.907 308.654 254.549 308.045 253.912C307.436 253.275 307.093 252.412 307.092 251.511V114.114C307.093 113.213 307.436 112.35 308.045 111.713C308.654 111.076 309.481 110.718 310.343 110.717H342.168C343.03 110.718 343.857 111.076 344.466 111.713C345.075 112.35 345.418 113.213 345.419 114.114V251.511C345.418 252.412 345.075 253.275 344.466 253.912C343.857 254.549 343.03 254.907 342.168 254.908Z" fill="#F2F2F2"/>
<path d="M94.1007 188.534C97.7294 188.534 100.671 185.46 100.671 181.668C100.671 177.876 97.7294 174.802 94.1007 174.802C90.4719 174.802 87.5303 177.876 87.5303 181.668C87.5303 185.46 90.4719 188.534 94.1007 188.534Z" fill="#3F3D56"/>
<path d="M152.139 143.903C155.767 143.903 158.709 140.829 158.709 137.037C158.709 133.245 155.767 130.171 152.139 130.171C148.51 130.171 145.568 133.245 145.568 137.037C145.568 140.829 148.51 143.903 152.139 143.903Z" fill="#3F3D56"/>
<path d="M210.178 188.534C213.807 188.534 216.748 185.46 216.748 181.668C216.748 177.876 213.807 174.802 210.178 174.802C206.549 174.802 203.607 177.876 203.607 181.668C203.607 185.46 206.549 188.534 210.178 188.534Z" fill="#3F3D56"/>
<path d="M268.217 122.161C271.846 122.161 274.787 119.087 274.787 115.294C274.787 111.502 271.846 108.428 268.217 108.428C264.588 108.428 261.646 111.502 261.646 115.294C261.646 119.087 264.588 122.161 268.217 122.161Z" fill="#3F3D56"/>
<path d="M326.255 96.9842C329.884 96.9842 332.825 93.9101 332.825 90.1179C332.825 86.3258 329.884 83.2517 326.255 83.2517C322.626 83.2517 319.685 86.3258 319.685 90.1179C319.685 93.9101 322.626 96.9842 326.255 96.9842Z" fill="#3F3D56"/>
<path d="M210.317 183.206L152.139 137.669L94.7576 182.584L93.4443 180.752L152.139 134.809L210.039 180.13L267.576 114.33L267.807 114.232L325.846 89.7949L326.665 91.9182L268.857 116.258L210.317 183.206Z" fill="#3F3D56"/>
<path d="M407.442 404.474L397.556 404.473L392.853 364.625L407.444 364.626L407.442 404.474Z" fill="#FFB6B6"/>
<path d="M409.963 414.488L378.087 414.487V414.066C378.087 410.627 379.394 407.329 381.721 404.898C384.048 402.466 387.204 401.1 390.494 401.1H390.495L409.964 401.101L409.963 414.488Z" fill="#2F2E41"/>
<path d="M372.111 235.812L377.724 329.262L396.568 395.041L411.168 396.145L403.836 315.979L407.051 262.74C407.051 262.74 422.289 250.869 413.864 236.58L372.111 235.812Z" fill="#2F2E41"/>
<path d="M413.893 404.474L404.007 404.473L399.304 364.625L413.894 364.626L413.893 404.474Z" fill="#FFB6B6"/>
<path d="M416.414 414.488L384.537 414.487V414.066C384.537 410.627 385.845 407.329 388.171 404.898C390.498 402.466 393.654 401.1 396.944 401.1H396.945L416.414 401.101L416.414 414.488Z" fill="#2F2E41"/>
<path d="M378.562 235.812L384.174 329.262L403.018 395.041L417.618 396.145L410.287 315.979L413.501 262.74C413.501 262.74 428.739 250.869 420.314 236.58L378.562 235.812Z" fill="#2F2E41"/>
<path d="M408.987 250.283C392.152 250.283 372.338 239.532 371.189 238.9L370.87 238.725L409.508 135.715L428.644 126.268C430.118 125.54 431.75 125.237 433.373 125.389C434.996 125.541 436.551 126.143 437.877 127.133C439.203 128.123 440.252 129.465 440.917 131.02C441.581 132.575 441.836 134.287 441.655 135.979L434.062 207.17L426.135 244.042L426.051 244.128C421.676 248.645 415.557 250.283 408.987 250.283Z" fill="#3F3D56"/>
<path d="M347.245 182.093C348.246 181.429 349.374 181.003 350.55 180.845C351.725 180.686 352.92 180.799 354.049 181.175C355.179 181.552 356.216 182.182 357.087 183.022C357.958 183.862 358.642 184.892 359.091 186.039L387.864 184.396L380.314 197.91L354.149 197.398C352.256 198.059 350.197 197.971 348.361 197.151C346.526 196.331 345.042 194.837 344.191 192.95C343.34 191.063 343.181 188.916 343.744 186.915C344.307 184.914 345.552 183.198 347.245 182.093V182.093Z" fill="#FFB6B6"/>
<path d="M404.025 203.247L375.19 202.478L375.563 182.546L389.197 178.01L411.562 145.23C412.682 143.588 414.105 142.198 415.748 141.142C417.391 140.085 419.22 139.383 421.126 139.078C423.033 138.773 424.979 138.87 426.849 139.365C428.719 139.859 430.476 140.74 432.014 141.956C433.553 143.172 434.842 144.698 435.807 146.444C436.772 148.189 437.391 150.119 437.63 152.12C437.868 154.12 437.72 156.15 437.195 158.09C436.669 160.03 435.777 161.839 434.571 163.412L404.025 203.247Z" fill="#3F3D56"/>
<path d="M420.72 122.472C431.301 122.472 439.879 113.508 439.879 102.45C439.879 91.3919 431.301 82.4277 420.72 82.4277C410.139 82.4277 401.561 91.3919 401.561 102.45C401.561 113.508 410.139 122.472 420.72 122.472Z" fill="#FFB6B6"/>
<path d="M396.48 85.7647C398.414 83.6928 400.926 82.315 403.657 81.8293C406.318 81.231 409.237 81.0457 411.366 79.3013C413.785 77.2873 414.849 73.4615 417.817 72.6104C419.108 72.3393 420.445 72.4502 421.679 72.9307C426.421 74.4254 430.631 77.3584 433.775 81.3575C434.516 82.5034 435.46 83.4903 436.557 84.2647C437.213 84.5549 437.853 84.8812 438.476 85.2422C439.159 85.8056 439.697 86.5385 440.04 87.3742C442.18 91.8878 442.673 97.0613 441.427 101.927C440.685 104.801 439.347 107.464 438.557 110.354C437.766 113.244 434.112 118.743 433.257 117.378C432.402 116.013 431.305 114.74 430.838 113.164C429.925 110.065 430.749 106.945 428.428 104.792C426.993 103.461 424.397 102.568 423.421 104.287C423.034 104.952 423.058 105.795 422.727 106.486C422.074 107.834 420.187 108.104 418.937 107.329C417.733 106.46 416.886 105.148 416.567 103.655C414.688 97.0144 411.487 92.8348 404.689 95.6746C402.157 96.7363 399.173 97.4526 396.738 95.6324C393.529 93.2392 394.182 88.4949 396.48 85.7647Z" fill="#2F2E41"/>
<path d="M353.457 265.863H321.631C320.769 265.862 319.943 265.503 319.333 264.867C318.724 264.23 318.381 263.366 318.38 262.466V125.068C318.381 124.168 318.724 123.304 319.333 122.668C319.943 122.031 320.769 121.673 321.631 121.672H353.457C354.318 121.673 355.145 122.031 355.754 122.668C356.363 123.304 356.706 124.168 356.707 125.068V262.466C356.706 263.366 356.363 264.23 355.754 264.867C355.145 265.503 354.318 265.862 353.457 265.863V265.863Z" fill="#B45309"/>
<path d="M346.437 193.89C347.438 193.227 348.566 192.801 349.742 192.642C350.918 192.484 352.112 192.597 353.242 192.973C354.371 193.349 355.408 193.98 356.279 194.82C357.15 195.66 357.834 196.69 358.283 197.836L387.056 196.194L379.507 209.708L353.341 209.196C351.448 209.856 349.389 209.768 347.554 208.949C345.718 208.129 344.235 206.634 343.384 204.748C342.533 202.861 342.374 200.714 342.936 198.713C343.499 196.711 344.744 194.996 346.437 193.89H346.437Z" fill="#FFB6B6"/>
<path d="M403.219 215.044L374.385 214.275L374.757 194.343L388.392 189.808L410.756 157.027C411.876 155.386 413.3 153.996 414.942 152.939C416.585 151.883 418.414 151.181 420.321 150.876C422.227 150.571 424.173 150.668 426.044 151.162C427.914 151.657 429.67 152.538 431.209 153.754C432.747 154.969 434.037 156.495 435.001 158.241C435.966 159.987 436.586 161.917 436.824 163.917C437.062 165.918 436.915 167.948 436.389 169.887C435.864 171.827 434.972 173.637 433.765 175.21L403.219 215.044Z" fill="#3F3D56"/>
<path d="M529.194 415.686H221.966C221.86 415.687 221.755 415.665 221.657 415.623C221.559 415.581 221.469 415.519 221.394 415.44C221.319 415.362 221.259 415.269 221.219 415.167C221.178 415.064 221.157 414.955 221.157 414.844C221.157 414.733 221.178 414.623 221.219 414.521C221.259 414.418 221.319 414.325 221.394 414.247C221.469 414.169 221.559 414.107 221.657 414.064C221.755 414.022 221.86 414.001 221.966 414.001H529.194C529.3 414.001 529.405 414.022 529.504 414.064C529.602 414.107 529.691 414.169 529.766 414.247C529.841 414.325 529.901 414.418 529.941 414.521C529.982 414.623 530.003 414.733 530.003 414.844C530.003 414.955 529.982 415.064 529.941 415.167C529.901 415.269 529.841 415.362 529.766 415.44C529.691 415.519 529.602 415.581 529.504 415.623C529.405 415.665 529.3 415.687 529.194 415.686V415.686Z" fill="#CACACA"/>
</g>
<defs>
<clipPath id="clip0_2927_2104">
<rect width="530" height="415.686" fill="white"/>
</clipPath>
</defs>
</svg>
